<svg width="157" height="43" viewBox="0 0 157 43" fill="none" xmlns="http://www.w3.org/2000/svg">
<path d="M17.7632 5H1V9.56522H3.95821C10.3727 19.5895 23.1 39.7105 22.6935 40L29.103 35.4348C33.5403 32.3913 31.8968 28.6715 30.5821 26.3043L17.7632 5Z" fill="#0199FE"/>
<path d="M34 5H53V10.0561L47.3514 11.0673V33.3142C47.7622 41.404 45.2973 39.8872 34 39.8872V5Z" fill="#0199FE"/>
<circle cx="8" cy="34.5" r="8" fill="#0199FE"/>
<path d="M74.654 5.636C76.15 5.636 77.3527 6.098 78.262 7.022C79.186 7.93133 79.648 9.20733 79.648 10.85V18H76.568V11.268C76.568 10.3147 76.326 9.58867 75.842 9.09C75.358 8.57667 74.698 8.32 73.862 8.32C73.026 8.32 72.3587 8.57667 71.86 9.09C71.376 9.58867 71.134 10.3147 71.134 11.268V18H68.054V11.268C68.054 10.3147 67.812 9.58867 67.328 9.09C66.844 8.57667 66.184 8.32 65.348 8.32C64.4973 8.32 63.8227 8.57667 63.324 9.09C62.84 9.58867 62.598 10.3147 62.598 11.268V18H59.518V5.812H62.598V7.286C62.994 6.77267 63.5 6.36933 64.116 6.076C64.7467 5.78267 65.436 5.636 66.184 5.636C67.1373 5.636 67.988 5.84133 68.736 6.252C69.484 6.648 70.0633 7.22 70.474 7.968C70.87 7.264 71.442 6.69933 72.19 6.274C72.9527 5.84867 73.774 5.636 74.654 5.636ZM83.6927 4.36C83.1501 4.36 82.6954 4.19133 82.3287 3.854C81.9767 3.502 81.8007 3.06933 81.8007 2.556C81.8007 2.04267 81.9767 1.61733 82.3287 1.28C82.6954 0.927999 83.1501 0.751999 83.6927 0.751999C84.2354 0.751999 84.6827 0.927999 85.0347 1.28C85.4014 1.61733 85.5847 2.04267 85.5847 2.556C85.5847 3.06933 85.4014 3.502 85.0347 3.854C84.6827 4.19133 84.2354 4.36 83.6927 4.36ZM85.2107 5.812V18H82.1307V5.812H85.2107ZM92.4778 18.198C91.4804 18.198 90.5858 18.022 89.7938 17.67C89.0018 17.3033 88.3711 16.812 87.9018 16.196C87.4471 15.58 87.1978 14.898 87.1538 14.15H90.2558C90.3144 14.6193 90.5418 15.008 90.9378 15.316C91.3484 15.624 91.8544 15.778 92.4558 15.778C93.0424 15.778 93.4971 15.6607 93.8198 15.426C94.1571 15.1913 94.3258 14.8907 94.3258 14.524C94.3258 14.128 94.1204 13.8347 93.7098 13.644C93.3138 13.4387 92.6758 13.2187 91.7958 12.984C90.8864 12.764 90.1384 12.5367 89.5518 12.302C88.9798 12.0673 88.4811 11.708 88.0558 11.224C87.6451 10.74 87.4398 10.0873 87.4398 9.266C87.4398 8.59133 87.6304 7.97533 88.0118 7.418C88.4078 6.86067 88.9651 6.42067 89.6838 6.098C90.4171 5.77533 91.2751 5.614 92.2578 5.614C93.7098 5.614 94.8684 5.98067 95.7338 6.714C96.5991 7.43267 97.0758 8.408 97.1638 9.64H94.2158C94.1718 9.156 93.9664 8.77467 93.5998 8.496C93.2478 8.20267 92.7711 8.056 92.1698 8.056C91.6124 8.056 91.1798 8.15867 90.8718 8.364C90.5784 8.56933 90.4318 8.85533 90.4318 9.222C90.4318 9.63267 90.6371 9.948 91.0478 10.168C91.4584 10.3733 92.0964 10.586 92.9618 10.806C93.8418 11.026 94.5678 11.2533 95.1398 11.488C95.7118 11.7227 96.2031 12.0893 96.6138 12.588C97.0391 13.072 97.2591 13.7173 97.2738 14.524C97.2738 15.228 97.0758 15.8587 96.6798 16.416C96.2984 16.9733 95.7411 17.4133 95.0078 17.736C94.2891 18.044 93.4458 18.198 92.4778 18.198ZM102.948 8.342V14.238C102.948 14.6487 103.043 14.9493 103.234 15.14C103.439 15.316 103.777 15.404 104.246 15.404H105.676V18H103.74C101.144 18 99.8461 16.7387 99.8461 14.216V8.342H98.3941V5.812H99.8461V2.798H102.948V5.812H105.676V8.342H102.948ZM110.531 7.704C110.927 7.05867 111.441 6.55267 112.071 6.186C112.717 5.81933 113.45 5.636 114.271 5.636V8.87H113.457C112.489 8.87 111.756 9.09733 111.257 9.552C110.773 10.0067 110.531 10.7987 110.531 11.928V18H107.451V5.812H110.531V7.704ZM117.468 4.36C116.925 4.36 116.471 4.19133 116.104 3.854C115.752 3.502 115.576 3.06933 115.576 2.556C115.576 2.04267 115.752 1.61733 116.104 1.28C116.471 0.927999 116.925 0.751999 117.468 0.751999C118.011 0.751999 118.458 0.927999 118.81 1.28C119.177 1.61733 119.36 2.04267 119.36 2.556C119.36 3.06933 119.177 3.502 118.81 3.854C118.458 4.19133 118.011 4.36 117.468 4.36ZM118.986 5.812V18H115.906V5.812H118.986ZM64.182 38.198C63.1847 38.198 62.29 38.022 61.498 37.67C60.706 37.3033 60.0753 36.812 59.606 36.196C59.1513 35.58 58.902 34.898 58.858 34.15H61.96C62.0187 34.6193 62.246 35.008 62.642 35.316C63.0527 35.624 63.5587 35.778 64.16 35.778C64.7467 35.778 65.2013 35.6607 65.524 35.426C65.8613 35.1913 66.03 34.8907 66.03 34.524C66.03 34.128 65.8247 33.8347 65.414 33.644C65.018 33.4387 64.38 33.2187 63.5 32.984C62.5907 32.764 61.8427 32.5367 61.256 32.302C60.684 32.0673 60.1853 31.708 59.76 31.224C59.3493 30.74 59.144 30.0873 59.144 29.266C59.144 28.5913 59.3347 27.9753 59.716 27.418C60.112 26.8607 60.6693 26.4207 61.388 26.098C62.1213 25.7753 62.9793 25.614 63.962 25.614C65.414 25.614 66.5727 25.9807 67.438 26.714C68.3033 27.4327 68.78 28.408 68.868 29.64H65.92C65.876 29.156 65.6707 28.7747 65.304 28.496C64.952 28.2027 64.4753 28.056 63.874 28.056C63.3167 28.056 62.884 28.1587 62.576 28.364C62.2827 28.5693 62.136 28.8553 62.136 29.222C62.136 29.6327 62.3413 29.948 62.752 30.168C63.1627 30.3733 63.8007 30.586 64.666 30.806C65.546 31.026 66.272 31.2533 66.844 31.488C67.416 31.7227 67.9073 32.0893 68.318 32.588C68.7433 33.072 68.9633 33.7173 68.978 34.524C68.978 35.228 68.78 35.8587 68.384 36.416C68.0027 36.9733 67.4453 37.4133 66.712 37.736C65.9933 38.044 65.15 38.198 64.182 38.198ZM76.4783 38.198C75.3049 38.198 74.2489 37.9413 73.3103 37.428C72.3716 36.9 71.6309 36.1593 71.0883 35.206C70.5603 34.2527 70.2963 33.1527 70.2963 31.906C70.2963 30.6593 70.5676 29.5593 71.1103 28.606C71.6676 27.6527 72.4229 26.9193 73.3763 26.406C74.3296 25.878 75.3929 25.614 76.5663 25.614C77.7396 25.614 78.8029 25.878 79.7563 26.406C80.7096 26.9193 81.4576 27.6527 82.0003 28.606C82.5576 29.5593 82.8363 30.6593 82.8363 31.906C82.8363 33.1527 82.5503 34.2527 81.9783 35.206C81.4209 36.1593 80.6583 36.9 79.6903 37.428C78.7369 37.9413 77.6663 38.198 76.4783 38.198ZM76.4783 35.514C77.0356 35.514 77.5563 35.382 78.0403 35.118C78.5389 34.8393 78.9349 34.4287 79.2283 33.886C79.5216 33.3433 79.6683 32.6833 79.6683 31.906C79.6683 30.7473 79.3603 29.86 78.7443 29.244C78.1429 28.6133 77.4023 28.298 76.5223 28.298C75.6423 28.298 74.9016 28.6133 74.3003 29.244C73.7136 29.86 73.4203 30.7473 73.4203 31.906C73.4203 33.0647 73.7063 33.9593 74.2783 34.59C74.8649 35.206 75.5983 35.514 76.4783 35.514ZM87.7356 21.72V38H84.6556V21.72H87.7356ZM101.845 25.812V38H98.7426V36.46C98.3466 36.988 97.826 37.406 97.1806 37.714C96.55 38.0073 95.8606 38.154 95.1126 38.154C94.1593 38.154 93.316 37.956 92.5826 37.56C91.8493 37.1493 91.27 36.5553 90.8446 35.778C90.434 34.986 90.2286 34.0473 90.2286 32.962V25.812H93.3086V32.522C93.3086 33.49 93.5506 34.238 94.0346 34.766C94.5186 35.2793 95.1786 35.536 96.0146 35.536C96.8653 35.536 97.5326 35.2793 98.0166 34.766C98.5006 34.238 98.7426 33.49 98.7426 32.522V25.812H101.845ZM108.03 28.342V34.238C108.03 34.6487 108.125 34.9493 108.316 35.14C108.521 35.316 108.858 35.404 109.328 35.404H110.758V38H108.822C106.226 38 104.928 36.7387 104.928 34.216V28.342H103.476V25.812H104.928V22.798H108.03V25.812H110.758V28.342H108.03ZM114.095 24.36C113.552 24.36 113.098 24.1913 112.731 23.854C112.379 23.502 112.203 23.0693 112.203 22.556C112.203 22.0427 112.379 21.6173 112.731 21.28C113.098 20.928 113.552 20.752 114.095 20.752C114.638 20.752 115.085 20.928 115.437 21.28C115.804 21.6173 115.987 22.0427 115.987 22.556C115.987 23.0693 115.804 23.502 115.437 23.854C115.085 24.1913 114.638 24.36 114.095 24.36ZM115.613 25.812V38H112.533V25.812H115.613ZM123.628 38.198C122.455 38.198 121.399 37.9413 120.46 37.428C119.521 36.9 118.781 36.1593 118.238 35.206C117.71 34.2527 117.446 33.1527 117.446 31.906C117.446 30.6593 117.717 29.5593 118.26 28.606C118.817 27.6527 119.573 26.9193 120.526 26.406C121.479 25.878 122.543 25.614 123.716 25.614C124.889 25.614 125.953 25.878 126.906 26.406C127.859 26.9193 128.607 27.6527 129.15 28.606C129.707 29.5593 129.986 30.6593 129.986 31.906C129.986 33.1527 129.7 34.2527 129.128 35.206C128.571 36.1593 127.808 36.9 126.84 37.428C125.887 37.9413 124.816 38.198 123.628 38.198ZM123.628 35.514C124.185 35.514 124.706 35.382 125.19 35.118C125.689 34.8393 126.085 34.4287 126.378 33.886C126.671 33.3433 126.818 32.6833 126.818 31.906C126.818 30.7473 126.51 29.86 125.894 29.244C125.293 28.6133 124.552 28.298 123.672 28.298C122.792 28.298 122.051 28.6133 121.45 29.244C120.863 29.86 120.57 30.7473 120.57 31.906C120.57 33.0647 120.856 33.9593 121.428 34.59C122.015 35.206 122.748 35.514 123.628 35.514ZM138.559 25.636C140.011 25.636 141.185 26.098 142.079 27.022C142.974 27.9313 143.421 29.2073 143.421 30.85V38H140.341V31.268C140.341 30.3 140.099 29.5593 139.615 29.046C139.131 28.518 138.471 28.254 137.635 28.254C136.785 28.254 136.11 28.518 135.611 29.046C135.127 29.5593 134.885 30.3 134.885 31.268V38H131.805V25.812H134.885V27.33C135.296 26.802 135.817 26.3913 136.447 26.098C137.093 25.79 137.797 25.636 138.559 25.636ZM150.574 38.198C149.577 38.198 148.682 38.022 147.89 37.67C147.098 37.3033 146.467 36.812 145.998 36.196C145.543 35.58 145.294 34.898 145.25 34.15H148.352C148.411 34.6193 148.638 35.008 149.034 35.316C149.445 35.624 149.951 35.778 150.552 35.778C151.139 35.778 151.593 35.6607 151.916 35.426C152.253 35.1913 152.422 34.8907 152.422 34.524C152.422 34.128 152.217 33.8347 151.806 33.644C151.41 33.4387 150.772 33.2187 149.892 32.984C148.983 32.764 148.235 32.5367 147.648 32.302C147.076 32.0673 146.577 31.708 146.152 31.224C145.741 30.74 145.536 30.0873 145.536 29.266C145.536 28.5913 145.727 27.9753 146.108 27.418C146.504 26.8607 147.061 26.4207 147.78 26.098C148.513 25.7753 149.371 25.614 150.354 25.614C151.806 25.614 152.965 25.9807 153.83 26.714C154.695 27.4327 155.172 28.408 155.26 29.64H152.312C152.268 29.156 152.063 28.7747 151.696 28.496C151.344 28.2027 150.867 28.056 150.266 28.056C149.709 28.056 149.276 28.1587 148.968 28.364C148.675 28.5693 148.528 28.8553 148.528 29.222C148.528 29.6327 148.733 29.948 149.144 30.168C149.555 30.3733 150.193 30.586 151.058 30.806C151.938 31.026 152.664 31.2533 153.236 31.488C153.808 31.7227 154.299 32.0893 154.71 32.588C155.135 33.072 155.355 33.7173 155.37 34.524C155.37 35.228 155.172 35.8587 154.776 36.416C154.395 36.9733 153.837 37.4133 153.104 37.736C152.385 38.044 151.542 38.198 150.574 38.198Z" fill="white"/>
</svg>
