<svg width="545" height="363" viewBox="0 0 545 363" fill="none" xmlns="http://www.w3.org/2000/svg">
<g clip-path="url(#clip0_416_292)">
<path d="M333.564 51.0947C333.256 50.984 332.944 50.8837 332.628 50.794C332.524 50.7637 332.421 50.7323 332.317 50.7057C332.093 50.6491 331.868 50.5952 331.643 50.5441C331.535 50.5199 331.427 50.5 331.317 50.4794C331.091 50.4374 330.865 50.3995 330.637 50.3656C330.504 50.3471 330.371 50.3301 330.238 50.3148C330.141 50.3033 330.044 50.2924 329.946 50.2828C329.793 50.2688 329.64 50.2573 329.486 50.2483C329.405 50.2434 329.325 50.2356 329.243 50.2325C329.007 50.221 328.769 50.215 328.53 50.215H218.861C218.107 50.2128 217.354 50.2698 216.609 50.3856C216.366 50.4232 216.123 50.4666 215.882 50.5157C209.623 51.7959 204.806 57.0376 204.15 63.5099C204.098 64.013 204.073 64.5184 204.073 65.0242V289.506C204.073 295.916 208.139 301.373 213.829 303.435C213.855 303.445 213.88 303.453 213.906 303.461C214.188 303.561 214.475 303.652 214.764 303.734C214.868 303.764 214.971 303.796 215.077 303.823C215.189 303.852 215.3 303.879 215.41 303.905C215.523 303.932 215.638 303.959 215.751 303.985C215.859 304.008 215.967 304.029 216.077 304.049C216.302 304.091 216.528 304.129 216.755 304.163C216.887 304.182 217.02 304.198 217.154 304.214C217.251 304.225 217.348 304.236 217.446 304.245C217.599 304.26 217.753 304.271 217.907 304.28C217.987 304.285 218.068 304.293 218.149 304.296C218.385 304.307 218.623 304.314 218.863 304.314H328.533C329.044 304.314 329.548 304.288 330.046 304.238C337.005 303.53 342.539 297.988 343.246 291.018C343.297 290.519 343.322 290.014 343.322 289.503V65.0242C343.319 58.6142 339.253 53.1571 333.564 51.0953V51.0947Z" stroke="#0199FE" stroke-width="4"/>
<path d="M273.697 292.25C278.406 292.25 282.222 288.437 282.222 283.733C282.222 279.029 278.406 275.215 273.697 275.215C268.989 275.215 265.172 279.029 265.172 283.733C265.172 288.437 268.989 292.25 273.697 292.25Z" fill="white" stroke="#0199FE" stroke-width="4"/>
<path d="M287.194 62.2799H260.908C260.515 62.2799 260.197 62.5976 260.197 62.9896C260.197 63.3815 260.515 63.6992 260.908 63.6992H287.194C287.586 63.6992 287.904 63.3815 287.904 62.9896C287.904 62.5976 287.586 62.2799 287.194 62.2799Z" fill="white" stroke="#0199FE" stroke-width="2.346"/>
<path d="M321.262 72.9267H226.842C220.153 72.9267 214.73 78.344 214.73 85.0267V248.92C214.73 255.603 220.153 261.02 226.842 261.02H321.262C327.951 261.02 333.373 255.603 333.373 248.92V85.0267C333.373 78.344 327.951 72.9267 321.262 72.9267Z" stroke="#0199FE" stroke-width="4"/>
<path d="M362.936 148.225H237.938C232.277 148.225 227.688 152.81 227.688 158.465V222.08C227.688 227.735 232.277 232.32 237.938 232.32H362.936C368.597 232.32 373.186 227.735 373.186 222.08V158.465C373.186 152.81 368.597 148.225 362.936 148.225Z" fill="#0199FE"/>
<path d="M352.055 171.652H321.355M352.055 187.505H321.355M306.867 171.652H244.777M306.867 187.505H244.777M306.867 201.634H244.777" stroke="white" stroke-width="11.609" stroke-miterlimit="10" stroke-linecap="round" stroke-linejoin="round"/>
<path fill-rule="evenodd" clip-rule="evenodd" d="M335.911 218.103C334.958 217.18 334.201 216.076 333.684 214.855C333.167 213.634 332.902 212.321 332.904 210.996C332.904 208.111 334.137 205.515 336.106 203.703C334.544 202.512 332.634 201.868 330.669 201.871C325.716 201.871 321.701 205.883 321.701 210.831C321.701 215.78 325.716 219.792 330.669 219.792C332.626 219.792 334.436 219.165 335.911 218.103Z" fill="white"/>
<path d="M343.726 219.706C348.706 219.706 352.744 215.672 352.744 210.695C352.744 205.719 348.706 201.685 343.726 201.685C338.745 201.685 334.707 205.719 334.707 210.695C334.707 215.672 338.745 219.706 343.726 219.706Z" fill="white"/>
<path d="M154.268 182.105L147.032 189.327L143.517 185.826M166.528 180.29H180.455M166.528 190.877H190.144M154.268 206.84L147.032 214.062L143.517 210.561M166.528 205.095H180.455M166.528 215.38H190.144M154.268 230.356L147.032 237.579L143.517 234.077M166.528 228.69H180.455M166.528 238.975H190.144M154.268 255.09L147.032 262.313L143.517 258.811M166.528 253.192H180.455M166.528 263.78H190.144" stroke="#0199FE" stroke-width="5.5" stroke-linecap="round" stroke-linejoin="round"/>
<path d="M263.661 89.2514H162.894C156.206 89.2514 150.783 94.6688 150.783 101.351V125.04C150.783 131.723 156.206 137.14 162.894 137.14H263.661C270.35 137.14 275.772 131.723 275.772 125.04V101.351C275.772 94.6688 270.35 89.2514 263.661 89.2514Z" fill="white" stroke="#0199FE" stroke-width="4"/>
<path d="M260.191 104.157H195.541C193.972 104.157 192.699 105.428 192.699 106.996C192.699 108.564 193.972 109.835 195.541 109.835H260.191C261.76 109.835 263.033 108.564 263.033 106.996C263.033 105.428 261.76 104.157 260.191 104.157Z" fill="#0199FE"/>
<path d="M235.325 116.223H195.541C193.972 116.223 192.699 117.494 192.699 119.062C192.699 120.63 193.972 121.901 195.541 121.901H235.325C236.895 121.901 238.167 120.63 238.167 119.062C238.167 117.494 236.895 116.223 235.325 116.223Z" fill="#0199FE"/>
<path fill-rule="evenodd" clip-rule="evenodd" d="M170.592 125.268C163.967 125.268 158.595 119.825 158.595 113.113C158.595 106.401 163.967 100.959 170.592 100.959C177.217 100.959 182.589 106.401 182.589 113.113C182.589 119.825 177.217 125.268 170.592 125.268Z" fill="#0199FE"/>
<path d="M174.816 111.088L169.748 116.49L166.706 113.249" stroke="white" stroke-width="3.568" stroke-linecap="round" stroke-linejoin="round"/>
<path fill-rule="evenodd" clip-rule="evenodd" d="M407.412 116.649H405.719C405.31 116.649 404.98 116.316 404.98 115.911V114.22C404.98 113.811 405.313 113.482 405.719 113.482H407.412C407.817 113.482 408.151 113.814 408.151 114.22V115.911C408.154 116.316 407.821 116.649 407.412 116.649ZM401.543 116.649H399.851C399.445 116.649 399.112 116.316 399.112 115.911V114.22C399.112 113.811 399.445 113.482 399.851 113.482H401.543C401.949 113.482 402.282 113.814 402.282 114.22V115.911C402.282 116.316 401.949 116.649 401.543 116.649ZM395.672 116.649H393.979C393.574 116.649 393.241 116.316 393.241 115.911V114.22C393.241 113.811 393.574 113.482 393.979 113.482H395.672C396.078 113.482 396.411 113.814 396.411 114.22V115.911C396.414 116.316 396.081 116.649 395.672 116.649ZM389.803 116.649H388.111C387.705 116.649 387.372 116.316 387.372 115.911V114.22C387.372 113.811 387.705 113.482 388.111 113.482H389.803C390.213 113.482 390.545 113.814 390.545 114.22V115.911C390.543 116.106 390.464 116.294 390.326 116.432C390.187 116.57 389.999 116.648 389.803 116.649ZM383.935 116.649H382.242C381.833 116.649 381.5 116.316 381.5 115.911V114.22C381.5 113.811 381.833 113.482 382.242 113.482H383.935C384.341 113.482 384.674 113.814 384.674 114.22V115.911C384.674 116.316 384.341 116.649 383.935 116.649ZM401.328 110.256H399.636C399.23 110.256 398.897 109.923 398.897 109.518V107.823C398.897 107.418 399.23 107.085 399.636 107.085H401.328C401.738 107.085 402.067 107.418 402.067 107.823V109.514C402.068 109.611 402.049 109.708 402.012 109.798C401.975 109.888 401.921 109.97 401.852 110.039C401.784 110.108 401.702 110.162 401.612 110.2C401.522 110.237 401.426 110.256 401.328 110.256ZM395.46 110.256H393.767C393.362 110.256 393.029 109.923 393.029 109.518V107.823C393.029 107.418 393.362 107.085 393.767 107.085H395.46C395.866 107.085 396.199 107.418 396.199 107.823V109.514C396.199 109.611 396.181 109.708 396.144 109.798C396.107 109.888 396.053 109.97 395.984 110.039C395.915 110.108 395.834 110.162 395.744 110.2C395.654 110.237 395.557 110.256 395.46 110.256ZM389.591 110.256H387.899C387.49 110.256 387.157 109.923 387.157 109.518V107.823C387.157 107.418 387.49 107.085 387.899 107.085H389.591C389.997 107.085 390.33 107.418 390.33 107.823V109.514C390.33 109.923 389.997 110.256 389.591 110.256ZM395.672 123.517H393.979C393.574 123.517 393.241 123.184 393.241 122.779V121.088C393.241 120.679 393.574 120.35 393.979 120.35H395.672C396.078 120.35 396.411 120.682 396.411 121.088V122.779C396.414 123.184 396.081 123.517 395.672 123.517ZM389.803 123.517H388.111C387.705 123.517 387.372 123.184 387.372 122.779V121.088C387.372 120.679 387.705 120.35 388.111 120.35H389.803C390.213 120.35 390.545 120.682 390.545 121.088V122.779C390.543 122.974 390.464 123.161 390.326 123.3C390.187 123.438 389.999 123.516 389.803 123.517Z" fill="#0199FE"/>
<path d="M360.307 263.699L374.357 249.662C374.869 249.151 374.869 248.322 374.357 247.811L374.357 247.811C373.845 247.3 373.016 247.3 372.504 247.811L358.454 261.848C357.943 262.359 357.943 263.188 358.454 263.699L358.455 263.699C358.966 264.21 359.796 264.21 360.307 263.699Z" fill="#0199FE"/>
<path d="M361.682 253.649L365.734 249.6C366.246 249.089 366.245 248.261 365.734 247.75L365.734 247.749C365.222 247.238 364.393 247.238 363.881 247.749L359.829 251.797C359.318 252.309 359.318 253.137 359.829 253.648L359.83 253.649C360.341 254.16 361.17 254.16 361.682 253.649Z" fill="#0199FE"/>
<path d="M305.445 112.3L312.809 104.943C313.078 104.675 313.078 104.24 312.809 103.972C312.541 103.704 312.106 103.704 311.838 103.972L304.474 111.33C304.206 111.598 304.206 112.032 304.474 112.3C304.742 112.568 305.177 112.568 305.445 112.3Z" fill="#0199FE"/>
<path d="M306.166 107.032L308.29 104.911C308.558 104.643 308.558 104.208 308.29 103.94C308.022 103.672 307.587 103.672 307.319 103.94L305.195 106.062C304.927 106.33 304.927 106.764 305.195 107.032C305.463 107.3 305.898 107.3 306.166 107.032Z" fill="#0199FE"/>
<path d="M314.284 245.025C314.284 247.03 315.911 248.655 317.917 248.655C319.924 248.655 321.551 247.03 321.551 245.025C321.551 243.02 319.924 241.395 317.917 241.395C315.911 241.395 314.284 243.02 314.284 245.025Z" fill="#0199FE"/>
<path d="M313.073 115.555C313.073 117.56 314.7 119.185 316.707 119.185C318.713 119.185 320.34 117.56 320.34 115.555C320.34 113.55 318.713 111.925 316.707 111.925C314.7 111.925 313.073 113.55 313.073 115.555Z" fill="#0199FE"/>
<path d="M364.412 68.9224C366.76 68.2939 368.153 65.8828 367.524 63.537C366.895 61.1913 364.482 59.7993 362.134 60.4278C359.786 61.0563 358.393 63.4674 359.022 65.8132C359.651 68.1589 362.064 69.5509 364.412 68.9224Z" fill="#0199FE"/>
<path fill-rule="evenodd" clip-rule="evenodd" d="M357.883 98.3488V83.798C357.882 83.4401 357.953 83.0856 358.089 82.7548C358.226 82.424 358.427 82.1234 358.68 81.87C358.933 81.6167 359.233 81.4157 359.564 81.2784C359.895 81.1411 360.25 81.0703 360.608 81.07H376.958C378.463 81.07 379.683 82.2909 379.683 83.798V98.3488C379.683 98.835 379.553 99.3123 379.307 99.7315C379.06 100.151 378.706 100.497 378.281 100.733L370.106 105.28C369.701 105.505 369.246 105.624 368.782 105.624C368.319 105.624 367.863 105.505 367.458 105.28L359.283 100.733C358.859 100.496 358.505 100.15 358.259 99.7311C358.013 99.3119 357.883 98.8348 357.883 98.3488Z" fill="#0199FE"/>
<path d="M364.252 93.1016H373.315M364.252 88.86H373.315M364.252 97.2217H373.315" stroke="white" stroke-width="2.529" stroke-linecap="round" stroke-linejoin="round"/>
</g>
<defs>
<clipPath id="clip0_416_292">
<rect width="545" height="363" fill="white"/>
</clipPath>
</defs>
</svg>
