<svg width="475" height="342" viewBox="0 0 475 342" fill="none" xmlns="http://www.w3.org/2000/svg">
<g clip-path="url(#clip0_419_10)">
<path d="M367.236 276.786H106.644C98.9398 276.786 92.6914 270.038 92.6914 261.717V85.3768C92.6914 77.056 98.9398 70.3077 106.644 70.3077H367.236C374.941 70.3077 381.188 77.056 381.188 85.3768V261.717C381.188 270.038 374.941 276.786 367.236 276.786V276.786Z" stroke="#0199FE" stroke-width="4"/>
<path d="M381.188 85.3768C381.188 86.6375 380.725 87.8465 379.899 88.7379C379.074 89.6293 377.954 90.1301 376.787 90.1301H97.0931C95.9258 90.1301 94.8063 89.6293 93.9808 88.7379C93.1554 87.8465 92.6915 86.6375 92.6914 85.3768C92.6914 77.056 98.9398 70.3077 106.644 70.3077H367.236C374.941 70.3077 381.188 77.056 381.188 85.3768V85.3768Z" stroke="#0199FE" stroke-width="4"/>
<path d="M106.672 84.4107C107.099 84.4166 107.522 84.3309 107.918 84.1586C108.314 83.9863 108.674 83.7309 108.978 83.4071C109.282 83.0833 109.523 82.6976 109.687 82.2724C109.852 81.8471 109.937 81.3908 109.937 80.93C109.937 80.4691 109.852 80.0128 109.687 79.5876C109.523 79.1623 109.282 78.7766 108.978 78.4528C108.674 78.129 108.314 77.8736 107.918 77.7013C107.522 77.529 107.099 77.4434 106.672 77.4493C105.825 77.461 105.015 77.8328 104.42 78.4843C103.824 79.1358 103.49 80.0145 103.49 80.93C103.49 81.8455 103.824 82.7241 104.42 83.3756C105.015 84.0271 105.825 84.399 106.672 84.4107ZM120.101 84.4107C120.528 84.4166 120.952 84.3309 121.347 84.1586C121.743 83.9863 122.103 83.7309 122.407 83.4071C122.711 83.0833 122.952 82.6976 123.117 82.2724C123.281 81.8471 123.366 81.3908 123.366 80.93C123.366 80.4691 123.281 80.0128 123.117 79.5876C122.952 79.1623 122.711 78.7766 122.407 78.4528C122.103 78.129 121.743 77.8736 121.347 77.7013C120.952 77.529 120.528 77.4434 120.101 77.4493C119.254 77.461 118.445 77.8328 117.849 78.4843C117.253 79.1358 116.92 80.0145 116.92 80.93C116.92 81.8455 117.253 82.7241 117.849 83.3756C118.445 84.0271 119.254 84.399 120.101 84.4107ZM132.994 84.4107C133.421 84.4166 133.844 84.3309 134.24 84.1586C134.636 83.9863 134.996 83.7309 135.3 83.4071C135.603 83.0833 135.844 82.6976 136.009 82.2724C136.174 81.8471 136.258 81.3908 136.258 80.93C136.258 80.4691 136.174 80.0128 136.009 79.5876C135.844 79.1623 135.603 78.7766 135.3 78.4528C134.996 78.129 134.636 77.8736 134.24 77.7013C133.844 77.529 133.421 77.4434 132.994 77.4493C132.146 77.461 131.337 77.8328 130.742 78.4843C130.146 79.1358 129.812 80.0145 129.812 80.93C129.812 81.8455 130.146 82.7241 130.742 83.3756C131.337 84.0271 132.146 84.399 132.994 84.4107Z" fill="#0199FE"/>
<path d="M187.747 117.997H78.1181C74.908 117.997 72.3057 120.808 72.3057 124.275V161.94C72.3057 165.407 74.908 168.218 78.1181 168.218H187.747C190.957 168.218 193.559 165.407 193.559 161.94V124.275C193.559 120.808 190.957 117.997 187.747 117.997Z" fill="white"/>
<path d="M178.356 133.42H109.896C108.388 133.42 107.166 134.74 107.166 136.368C107.166 137.997 108.388 139.317 109.896 139.317H178.356C179.864 139.317 181.087 137.997 181.087 136.368C181.087 134.74 179.864 133.42 178.356 133.42Z" fill="#0199FE"/>
<path d="M152.316 146.574H109.896C108.388 146.574 107.166 147.894 107.166 149.523C107.166 151.151 108.388 152.471 109.896 152.471H152.316C153.824 152.471 155.047 151.151 155.047 149.523C155.047 147.894 153.824 146.574 152.316 146.574Z" fill="#0199FE"/>
<path d="M92.0458 152.472C96.9171 152.472 100.866 148.207 100.866 142.946C100.866 137.685 96.9171 133.42 92.0458 133.42C87.1745 133.42 83.2256 137.685 83.2256 142.946C83.2256 148.207 87.1745 152.472 92.0458 152.472Z" fill="#0199FE"/>
<path d="M359.705 174.99H262.312C259.102 174.99 256.5 177.8 256.5 181.267V278.642C256.5 282.109 259.102 284.92 262.312 284.92H359.705C362.915 284.92 365.517 282.109 365.517 278.642V181.267C365.517 177.8 362.915 174.99 359.705 174.99Z" fill="#0199FE"/>
<path d="M351.848 250.128H290.296C288.941 250.128 287.842 251.315 287.842 252.779C287.842 254.243 288.941 255.429 290.296 255.429H351.848C353.203 255.429 354.302 254.243 354.302 252.779C354.302 251.315 353.203 250.128 351.848 250.128Z" fill="white"/>
<path d="M287.647 195.714V236.563C287.647 238.055 288.768 239.266 290.15 239.266H290.151C291.533 239.266 292.653 238.055 292.653 236.563V195.714C292.653 194.221 291.533 193.011 290.151 193.011H290.15C288.768 193.011 287.647 194.221 287.647 195.714Z" fill="white"/>
<path d="M309.34 195.714V236.563C309.34 238.055 310.46 239.266 311.843 239.266H311.843C313.225 239.266 314.346 238.055 314.346 236.563V195.714C314.346 194.221 313.225 193.011 311.843 193.011H311.843C310.46 193.011 309.34 194.221 309.34 195.714Z" fill="white"/>
<path d="M331.032 195.714V236.563C331.032 238.055 332.153 239.266 333.535 239.266H333.535C334.918 239.266 336.038 238.055 336.038 236.563V195.714C336.038 194.221 334.918 193.011 333.535 193.011H333.535C332.153 193.011 331.032 194.221 331.032 195.714Z" fill="white"/>
<path d="M328.435 261.956H290.296C288.941 261.956 287.842 263.142 287.842 264.606C287.842 266.07 288.941 267.257 290.296 267.257H328.435C329.791 267.257 330.89 266.07 330.89 264.606C330.89 263.142 329.791 261.956 328.435 261.956Z" fill="white"/>
<path d="M298.771 211.632V236.863C298.771 238.19 299.767 239.266 300.996 239.266H300.997C302.225 239.266 303.221 238.19 303.221 236.863V211.632C303.221 210.306 302.225 209.23 300.997 209.23H300.996C299.767 209.23 298.771 210.306 298.771 211.632Z" fill="white"/>
<path d="M320.464 211.632V236.863C320.464 238.19 321.46 239.266 322.688 239.266H322.689C323.918 239.266 324.914 238.19 324.914 236.863V211.632C324.914 210.306 323.918 209.23 322.689 209.23H322.688C321.46 209.23 320.464 210.306 320.464 211.632Z" fill="white"/>
<path d="M342.156 211.632V236.863C342.156 238.19 343.152 239.266 344.381 239.266H344.381C345.61 239.266 346.606 238.19 346.606 236.863V211.632C346.606 210.306 345.61 209.23 344.381 209.23H344.381C343.152 209.23 342.156 210.306 342.156 211.632Z" fill="white"/>
<path d="M274.248 267.256C278.628 267.256 282.178 263.422 282.178 258.692C282.178 253.962 278.628 250.128 274.248 250.128C269.869 250.128 266.318 253.962 266.318 258.692C266.318 263.422 269.869 267.256 274.248 267.256Z" fill="white"/>
<path d="M392.139 83.8265H288.659C283.412 83.8265 279.159 88.4201 279.159 94.0865V122.889C279.159 128.556 283.412 133.149 288.659 133.149H392.139C397.386 133.149 401.639 128.556 401.639 122.889V94.0865C401.639 88.4201 397.386 83.8265 392.139 83.8265Z" fill="white" stroke="#0199FE" stroke-width="4"/>
<path d="M387.073 98.5336H316.728C315.179 98.5336 313.923 99.8899 313.923 101.563C313.923 103.236 315.179 104.593 316.728 104.593H387.073C388.622 104.593 389.878 103.236 389.878 101.563C389.878 99.8899 388.622 98.5336 387.073 98.5336Z" fill="#0199FE"/>
<path d="M360.316 112.051H316.728C315.179 112.051 313.923 113.407 313.923 115.08C313.923 116.753 315.179 118.11 316.728 118.11H360.316C361.865 118.11 363.121 116.753 363.121 115.08C363.121 113.407 361.865 112.051 360.316 112.051Z" fill="#0199FE"/>
<path fill-rule="evenodd" clip-rule="evenodd" d="M297.849 121.496C291.245 121.496 285.891 115.631 285.891 108.399C285.891 101.166 291.245 95.3018 297.849 95.3018C304.453 95.3018 309.807 101.166 309.807 108.399C309.807 115.631 304.453 121.496 297.849 121.496Z" fill="#0199FE"/>
<path d="M302.059 106.216L297.008 112.037L293.975 108.545" stroke="white" stroke-width="3.568" stroke-linecap="round" stroke-linejoin="round"/>
<path d="M279.344 163.994C278.443 163.636 277.68 163.152 277.154 162.769C277.053 162.695 276.968 162.599 276.904 162.488C276.841 162.376 276.799 162.251 276.784 162.121C276.768 161.991 276.778 161.858 276.813 161.733C276.848 161.607 276.908 161.491 276.987 161.392C277.125 161.221 277.316 161.11 277.524 161.08C277.733 161.05 277.944 161.104 278.118 161.231C278.554 161.548 279.193 161.956 279.939 162.252L280.022 162.285C281.797 162.964 283.323 162.684 284.556 161.453C285.241 160.769 285.843 160.146 286.374 159.597C288.721 157.165 290.014 155.827 292.483 155.477C295.002 155.121 296.657 157.146 298.117 158.932C299.165 160.214 300.155 161.425 301.169 161.373L301.39 161.361L301.524 161.434C301.696 161.482 303.403 161.841 305.852 158.499C307.387 156.404 308.839 155.277 310.293 155.055C311.261 154.906 312.086 155.17 312.796 155.56C312.904 155.619 312.999 155.702 313.075 155.803C313.152 155.905 313.207 156.022 313.238 156.149C313.269 156.275 313.275 156.407 313.256 156.536C313.236 156.665 313.192 156.788 313.125 156.896C313.009 157.086 312.832 157.223 312.628 157.28C312.425 157.337 312.209 157.311 312.022 157.206C310.972 156.613 309.536 156.465 307.201 159.651C304.219 163.72 301.82 163.443 301.089 163.231C299.334 163.227 298.061 161.668 296.829 160.16C295.539 158.582 294.32 157.09 292.708 157.319C290.798 157.589 289.785 158.638 287.565 160.937C286.957 161.57 286.344 162.196 285.725 162.816C283.996 164.542 281.808 164.956 279.397 164.015C279.379 164.007 279.361 164.001 279.344 163.994Z" fill="#0199FE"/>
<path d="M313.985 158.297C313.085 157.938 312.322 157.455 311.796 157.071C311.695 156.997 311.61 156.902 311.546 156.79C311.482 156.679 311.441 156.554 311.425 156.424C311.409 156.293 311.419 156.161 311.455 156.036C311.49 155.91 311.549 155.794 311.629 155.695C311.767 155.524 311.957 155.412 312.166 155.383C312.374 155.353 312.585 155.406 312.759 155.533C313.195 155.851 313.835 156.259 314.58 156.555L314.664 156.588C316.439 157.267 317.964 156.987 319.198 155.756C319.883 155.072 320.484 154.449 321.015 153.899C323.362 151.468 324.655 150.129 327.125 149.78C329.644 149.424 331.299 151.448 332.758 153.235C333.806 154.517 334.796 155.728 335.81 155.676L336.032 155.664L336.165 155.737C336.338 155.784 338.044 156.144 340.494 152.802C342.028 150.707 343.481 149.58 344.934 149.357C345.903 149.209 346.728 149.473 347.438 149.863C347.546 149.922 347.641 150.005 347.717 150.106C347.793 150.208 347.849 150.325 347.88 150.452C347.911 150.578 347.917 150.71 347.897 150.839C347.878 150.967 347.833 151.09 347.766 151.199C347.65 151.389 347.473 151.526 347.27 151.583C347.066 151.64 346.85 151.614 346.663 151.509C345.614 150.915 344.177 150.768 341.843 153.954C338.86 158.023 336.461 157.746 335.73 157.534C333.976 157.529 332.703 155.971 331.47 154.463C330.18 152.884 328.962 151.393 327.35 151.621C325.44 151.891 324.426 152.941 322.207 155.24C321.599 155.872 320.985 156.499 320.366 157.119C318.637 158.845 316.45 159.259 314.038 158.318C314.02 158.31 314.003 158.304 313.985 158.297Z" fill="#0199FE"/>
<path d="M120.333 189.435L114.401 195.835L111.52 192.732M133.185 186.372H150.715M133.321 195.765H162.312M120.333 211.353L114.401 217.753L111.52 214.649M133.185 208.29H150.715M133.321 217.683H162.312M162.312 239.6H133.185M162.312 230.207H133.321" stroke="#0199FE" stroke-width="5.5" stroke-linecap="round" stroke-linejoin="round"/>
<path d="M115.926 242.732C119.129 242.732 121.725 239.928 121.725 236.47C121.725 233.011 119.129 230.208 115.926 230.208C112.724 230.208 110.128 233.011 110.128 236.47C110.128 239.928 112.724 242.732 115.926 242.732Z" stroke="#0199FE" stroke-width="5.5" stroke-linecap="round" stroke-linejoin="round"/>
<path d="M195.422 189.435L189.49 195.835L186.608 192.732M208.273 186.372H225.804M208.41 195.765H237.401M195.422 211.353L189.49 217.753L186.608 214.649M208.273 208.29H225.804M208.41 217.683H237.401M237.401 239.6H208.273M237.401 230.207H208.41" stroke="#0199FE" stroke-width="5.5" stroke-linecap="round" stroke-linejoin="round"/>
<path d="M191.014 242.732C194.217 242.732 196.812 239.928 196.812 236.47C196.812 233.011 194.217 230.208 191.014 230.208C187.812 230.208 185.216 233.011 185.216 236.47C185.216 239.928 187.812 242.732 191.014 242.732Z" stroke="#0199FE" stroke-width="5.5" stroke-linecap="round" stroke-linejoin="round"/>
<path d="M348.004 152.347C349.77 152.698 351.464 151.437 351.789 149.529C352.114 147.622 350.946 145.792 349.18 145.441C347.414 145.09 345.719 146.352 345.394 148.259C345.07 150.166 346.238 151.997 348.004 152.347Z" fill="#0199FE"/>
<path fill-rule="evenodd" clip-rule="evenodd" d="M270.613 138.342H269.467C269.335 138.342 269.208 138.285 269.114 138.184C269.02 138.082 268.968 137.945 268.968 137.802V136.565C268.968 136.265 269.193 136.025 269.467 136.025H270.613C270.746 136.025 270.873 136.082 270.966 136.183C271.06 136.285 271.113 136.422 271.113 136.565V137.802C271.113 137.873 271.1 137.943 271.075 138.009C271.05 138.075 271.014 138.134 270.967 138.184C270.921 138.234 270.865 138.274 270.805 138.301C270.744 138.328 270.679 138.342 270.613 138.342ZM266.641 138.342H265.495C265.363 138.341 265.236 138.284 265.142 138.183C265.049 138.082 264.996 137.945 264.996 137.802V136.565C264.996 136.265 265.221 136.025 265.495 136.025H266.641C266.774 136.025 266.901 136.082 266.994 136.183C267.088 136.285 267.141 136.422 267.141 136.565V137.802C267.141 137.945 267.088 138.082 266.994 138.183C266.901 138.284 266.774 138.341 266.641 138.342ZM262.667 138.342H261.521C261.389 138.341 261.262 138.284 261.168 138.183C261.074 138.082 261.021 137.945 261.021 137.802V136.565C261.021 136.265 261.246 136.025 261.521 136.025H262.667C262.941 136.025 263.167 136.268 263.167 136.565V137.802C263.167 137.873 263.154 137.943 263.129 138.009C263.104 138.074 263.067 138.134 263.02 138.184C262.974 138.234 262.919 138.274 262.858 138.301C262.797 138.328 262.732 138.342 262.667 138.342ZM258.694 138.342H257.549C257.417 138.341 257.29 138.284 257.196 138.183C257.102 138.082 257.049 137.945 257.049 137.802V136.565C257.049 136.265 257.274 136.025 257.549 136.025H258.694C258.972 136.025 259.197 136.268 259.197 136.565V137.802C259.196 137.945 259.142 138.082 259.048 138.183C258.954 138.284 258.827 138.341 258.694 138.342ZM254.722 138.342H253.577C253.444 138.342 253.316 138.285 253.222 138.184C253.128 138.083 253.075 137.946 253.074 137.802V136.565C253.074 136.265 253.299 136.025 253.577 136.025H254.722C254.855 136.025 254.982 136.082 255.075 136.183C255.169 136.285 255.222 136.422 255.222 136.565V137.802C255.222 137.945 255.169 138.082 255.075 138.183C254.982 138.284 254.855 138.341 254.722 138.342ZM266.496 133.664H265.35C265.218 133.663 265.091 133.606 264.997 133.505C264.903 133.404 264.85 133.267 264.85 133.124V131.884C264.85 131.587 265.075 131.344 265.35 131.344H266.496C266.773 131.344 266.996 131.587 266.996 131.884V133.121C266.996 133.192 266.984 133.263 266.959 133.329C266.934 133.395 266.897 133.455 266.85 133.505C266.804 133.555 266.748 133.595 266.688 133.623C266.627 133.65 266.561 133.664 266.496 133.664ZM262.523 133.664H261.378C261.245 133.663 261.118 133.606 261.025 133.505C260.931 133.404 260.878 133.267 260.878 133.124V131.884C260.878 131.587 261.103 131.344 261.378 131.344H262.523C262.798 131.344 263.024 131.587 263.024 131.884V133.121C263.024 133.192 263.011 133.263 262.986 133.329C262.961 133.395 262.925 133.455 262.878 133.505C262.832 133.555 262.776 133.595 262.716 133.623C262.655 133.65 262.589 133.664 262.523 133.664ZM258.551 133.664H257.406C257.273 133.664 257.145 133.607 257.051 133.506C256.957 133.405 256.904 133.268 256.903 133.124V131.884C256.903 131.587 257.129 131.344 257.406 131.344H258.551C258.826 131.344 259.051 131.587 259.051 131.884V133.121C259.051 133.265 258.999 133.402 258.905 133.504C258.811 133.606 258.684 133.663 258.551 133.664ZM262.667 143.368H261.521C261.389 143.367 261.262 143.31 261.168 143.209C261.074 143.108 261.021 142.97 261.021 142.827V141.59C261.021 141.291 261.246 141.05 261.521 141.05H262.667C262.941 141.05 263.167 141.293 263.167 141.59V142.827C263.167 142.898 263.154 142.969 263.129 143.034C263.104 143.1 263.067 143.159 263.021 143.21C262.974 143.26 262.919 143.3 262.858 143.327C262.797 143.354 262.732 143.368 262.667 143.368ZM258.694 143.368H257.549C257.417 143.367 257.29 143.31 257.196 143.209C257.102 143.108 257.049 142.97 257.049 142.827V141.59C257.049 141.291 257.274 141.05 257.549 141.05H258.694C258.972 141.05 259.197 141.293 259.197 141.59V142.827C259.196 142.971 259.142 143.108 259.048 143.209C258.954 143.31 258.827 143.367 258.694 143.368ZM250.59 119.119H249.444C249.312 119.119 249.185 119.062 249.091 118.961C248.997 118.86 248.944 118.723 248.944 118.579V117.342C248.944 117.043 249.17 116.802 249.444 116.802H250.59C250.722 116.803 250.849 116.86 250.943 116.961C251.036 117.062 251.089 117.199 251.09 117.342V118.579C251.09 118.65 251.077 118.721 251.052 118.786C251.027 118.852 250.99 118.911 250.944 118.962C250.897 119.012 250.842 119.052 250.781 119.079C250.721 119.106 250.656 119.119 250.59 119.119ZM246.618 119.119H245.472C245.34 119.119 245.213 119.062 245.119 118.961C245.025 118.859 244.972 118.722 244.972 118.579V117.342C244.972 117.043 245.198 116.802 245.472 116.802H246.618C246.75 116.803 246.877 116.86 246.971 116.961C247.064 117.062 247.117 117.199 247.118 117.342V118.579C247.117 118.722 247.064 118.859 246.971 118.961C246.877 119.062 246.75 119.119 246.618 119.119ZM242.643 119.119H241.497C241.365 119.119 241.238 119.062 241.144 118.961C241.051 118.859 240.998 118.722 240.998 118.579V117.342C240.998 117.043 241.223 116.802 241.497 116.802H242.643C242.918 116.802 243.143 117.046 243.143 117.342V118.579C243.144 118.65 243.131 118.721 243.106 118.786C243.08 118.852 243.044 118.911 242.997 118.962C242.951 119.012 242.895 119.051 242.835 119.078C242.774 119.106 242.709 119.119 242.643 119.119ZM238.671 119.119H237.525C237.393 119.119 237.266 119.062 237.172 118.961C237.079 118.859 237.026 118.722 237.025 118.579V117.342C237.025 117.043 237.251 116.802 237.525 116.802H238.671C238.948 116.802 239.174 117.046 239.174 117.342V118.579C239.172 118.723 239.119 118.859 239.025 118.96C238.931 119.061 238.804 119.118 238.671 119.119ZM234.699 119.119H233.553C233.42 119.119 233.293 119.062 233.199 118.961C233.105 118.86 233.051 118.723 233.051 118.579V117.342C233.051 117.043 233.276 116.802 233.553 116.802H234.699C234.831 116.803 234.958 116.86 235.052 116.961C235.146 117.062 235.198 117.199 235.199 117.342V118.579C235.198 118.722 235.146 118.859 235.052 118.961C234.958 119.062 234.831 119.119 234.699 119.119ZM246.472 114.441H245.326C245.194 114.441 245.067 114.384 244.973 114.283C244.88 114.182 244.827 114.044 244.827 113.901V112.662C244.827 112.365 245.052 112.121 245.326 112.121H246.472C246.749 112.121 246.972 112.365 246.972 112.662V113.899C246.972 113.97 246.96 114.04 246.935 114.106C246.91 114.172 246.873 114.232 246.827 114.282C246.78 114.333 246.725 114.373 246.664 114.4C246.603 114.427 246.538 114.441 246.472 114.441ZM242.5 114.441H241.354C241.222 114.441 241.095 114.384 241.001 114.283C240.908 114.182 240.855 114.044 240.855 113.901V112.662C240.855 112.365 241.08 112.121 241.354 112.121H242.5C242.775 112.121 243 112.365 243 112.662V113.899C243 113.97 242.988 114.04 242.963 114.106C242.938 114.172 242.901 114.232 242.855 114.282C242.808 114.333 242.753 114.373 242.692 114.4C242.631 114.427 242.566 114.441 242.5 114.441ZM238.528 114.441H237.382C237.249 114.441 237.122 114.384 237.028 114.283C236.934 114.182 236.881 114.045 236.88 113.901V112.662C236.88 112.365 237.105 112.121 237.382 112.121H238.528C238.802 112.121 239.028 112.365 239.028 112.662V113.899C239.028 114.042 238.975 114.18 238.882 114.281C238.788 114.383 238.661 114.44 238.528 114.441ZM242.643 124.145H241.497C241.365 124.144 241.238 124.087 241.145 123.986C241.051 123.885 240.998 123.748 240.998 123.605V122.367C240.998 122.068 241.223 121.827 241.497 121.827H242.643C242.918 121.827 243.143 122.071 243.143 122.367V123.605C243.144 123.676 243.131 123.746 243.106 123.811C243.08 123.877 243.044 123.937 242.997 123.987C242.951 124.037 242.895 124.077 242.835 124.104C242.774 124.131 242.709 124.145 242.643 124.145ZM238.671 124.145H237.525C237.393 124.144 237.266 124.087 237.172 123.986C237.079 123.885 237.026 123.748 237.025 123.605V122.367C237.025 122.068 237.251 121.827 237.525 121.827H238.671C238.948 121.827 239.174 122.071 239.174 122.367V123.605C239.172 123.748 239.118 123.884 239.024 123.985C238.93 124.086 238.804 124.144 238.671 124.145Z" fill="#0199FE"/>
<path d="M205.311 150.043C207.193 157.631 214.415 162.134 221.441 160.101C228.467 158.068 232.636 150.268 230.753 142.68C228.871 135.093 221.649 130.589 214.623 132.623C207.597 134.656 203.428 142.455 205.311 150.043Z" fill="url(#paint0_linear_419_10)"/>
<path d="M208.946 148.991C210.291 154.411 215.449 157.627 220.467 156.175C225.486 154.723 228.464 149.152 227.119 143.732C225.775 138.312 220.616 135.096 215.598 136.548C210.58 138 207.602 143.571 208.946 148.991Z" fill="white"/>
<path d="M221.441 160.101C219.349 160.706 217.151 160.745 215.042 160.214C212.933 159.683 210.977 158.598 209.349 157.056C207.72 155.514 206.469 153.561 205.706 151.372C204.944 149.183 204.692 146.824 204.975 144.505C205.258 142.186 206.065 139.978 207.327 138.077C208.589 136.176 210.265 134.64 212.207 133.605C214.15 132.57 216.298 132.069 218.463 132.146C220.628 132.222 222.741 132.874 224.617 134.043L222.642 137.739C221.329 136.92 219.849 136.463 218.334 136.41C216.819 136.356 215.315 136.707 213.955 137.432C212.595 138.156 211.421 139.231 210.538 140.562C209.655 141.893 209.089 143.439 208.891 145.062C208.693 146.685 208.869 148.337 209.403 149.869C209.938 151.402 210.814 152.768 211.954 153.848C213.094 154.927 214.462 155.686 215.939 156.058C217.415 156.43 218.954 156.403 220.418 155.979L221.441 160.101Z" fill="#0199FE"/>
</g>
<defs>
<linearGradient id="paint0_linear_419_10" x1="191.192" y1="154.757" x2="259.072" y2="137.129" gradientUnits="userSpaceOnUse">
<stop stop-color="#666AF6"/>
<stop offset="1" stop-color="#EEEEEE"/>
</linearGradient>
<clipPath id="clip0_419_10">
<rect width="475" height="342" fill="white"/>
</clipPath>
</defs>
</svg>
