<svg width="30" height="30" viewBox="0 0 30 30" fill="none" xmlns="http://www.w3.org/2000/svg">
<circle cx="15" cy="15" r="14.75" stroke="white" stroke-opacity="0.73" stroke-width="0.5"/>
<g clip-path="url(#clip0_378_1876)">
<path d="M15.0027 11.8554C13.2636 11.8554 11.8609 13.2581 11.8609 14.9972C11.8609 16.7362 13.2636 18.139 15.0027 18.139C16.7418 18.139 18.1445 16.7362 18.1445 14.9972C18.1445 13.2581 16.7418 11.8554 15.0027 11.8554ZM15.0027 17.0397C13.8789 17.0397 12.9601 16.1237 12.9601 14.9972C12.9601 13.8706 13.8761 12.9546 15.0027 12.9546C16.1293 12.9546 17.0453 13.8706 17.0453 14.9972C17.0453 16.1237 16.1265 17.0397 15.0027 17.0397ZM19.0058 11.7269C19.0058 12.1343 18.6777 12.4597 18.273 12.4597C17.8656 12.4597 17.5402 12.1315 17.5402 11.7269C17.5402 11.3222 17.8683 10.994 18.273 10.994C18.6777 10.994 19.0058 11.3222 19.0058 11.7269ZM21.0867 12.4706C21.0402 11.489 20.816 10.6194 20.0969 9.90303C19.3804 9.18662 18.5109 8.9624 17.5293 8.91318C16.5176 8.85576 13.4851 8.85576 12.4734 8.91318C11.4945 8.95967 10.625 9.18389 9.90584 9.90029C9.18669 10.6167 8.96521 11.4862 8.91599 12.4679C8.85857 13.4796 8.85857 16.512 8.91599 17.5237C8.96248 18.5054 9.18669 19.3749 9.90584 20.0913C10.625 20.8077 11.4918 21.0319 12.4734 21.0812C13.4851 21.1386 16.5176 21.1386 17.5293 21.0812C18.5109 21.0347 19.3804 20.8104 20.0969 20.0913C20.8133 19.3749 21.0375 18.5054 21.0867 17.5237C21.1441 16.512 21.1441 13.4823 21.0867 12.4706ZM19.7797 18.6093C19.5664 19.1452 19.1535 19.5581 18.6148 19.7741C17.8082 20.094 15.8941 20.0202 15.0027 20.0202C14.1113 20.0202 12.1945 20.0913 11.3906 19.7741C10.8547 19.5608 10.4418 19.1479 10.2258 18.6093C9.90584 17.8026 9.97966 15.8886 9.97966 14.9972C9.97966 14.1058 9.90857 12.189 10.2258 11.3851C10.439 10.8491 10.8519 10.4362 11.3906 10.2202C12.1972 9.90029 14.1113 9.97412 15.0027 9.97412C15.8941 9.97412 17.8109 9.90303 18.6148 10.2202C19.1508 10.4335 19.5636 10.8464 19.7797 11.3851C20.0996 12.1917 20.0258 14.1058 20.0258 14.9972C20.0258 15.8886 20.0996 17.8054 19.7797 18.6093Z" fill="white"/>
</g>
<defs>
<clipPath id="clip0_378_1876">
<rect width="14" height="14" fill="white" transform="translate(8 8)"/>
</clipPath>
</defs>
</svg>
