<svg width="30" height="30" viewBox="0 0 30 30" fill="none" xmlns="http://www.w3.org/2000/svg">
<circle cx="15" cy="15" r="14.75" stroke="white" stroke-opacity="0.73" stroke-width="0.5"/>
<path d="M21.3596 11.7938C21.207 11.219 20.7572 10.7663 20.1861 10.6127C19.1509 10.3335 15 10.3335 15 10.3335C15 10.3335 10.8491 10.3335 9.81386 10.6127C9.24275 10.7663 8.79295 11.219 8.64029 11.7938C8.36292 12.8358 8.36292 15.0096 8.36292 15.0096C8.36292 15.0096 8.36292 17.1834 8.64029 18.2253C8.79295 18.8002 9.24275 19.234 9.81386 19.3877C10.8491 19.6668 15 19.6668 15 19.6668C15 19.6668 19.1509 19.6668 20.1861 19.3877C20.7572 19.234 21.207 18.8002 21.3596 18.2253C21.637 17.1834 21.637 15.0096 21.637 15.0096C21.637 15.0096 21.637 12.8358 21.3596 11.7938ZM13.6424 16.9833V13.0359L17.1117 15.0096L13.6424 16.9833Z" fill="white"/>
</svg>
