<svg width="501" height="334" viewBox="0 0 501 334" fill="none" xmlns="http://www.w3.org/2000/svg">
<g clip-path="url(#clip0_425_91)">
<path d="M185.954 271.356C170.352 249.529 154.373 226.331 133.454 214.904C111.876 203.113 107.897 210.38 106.403 221.934C104.91 233.488 111.567 260.862 141.015 276.438C170.469 292.018 200.553 291.785 185.954 271.356Z" fill="url(#paint0_linear_425_91)"/>
<path d="M409.548 126.822C398.506 129.437 386.828 120.073 386.828 120.073C386.828 120.073 393.061 106.473 404.105 103.865C415.147 101.25 426.822 110.606 426.822 110.606C426.822 110.606 420.589 124.206 409.548 126.822Z" fill="url(#paint1_linear_425_91)"/>
<path d="M413.356 238.329C423.366 245.224 438.66 240.404 438.66 240.404C438.66 240.404 437.713 224.407 427.696 217.519C417.685 210.623 402.398 215.437 402.398 215.437C402.398 215.437 403.345 231.434 413.356 238.329Z" fill="url(#paint2_linear_425_91)"/>
<path d="M73.595 167.312C84.4477 178.358 104.742 176.028 104.742 176.028C104.742 176.028 107.427 155.791 96.5641 144.753C85.7119 133.707 65.4281 136.029 65.4281 136.029C65.4281 136.029 62.7427 156.266 73.595 167.312Z" fill="url(#paint3_linear_425_91)"/>
<path d="M389.921 185.547C385.467 185.547 381.856 189 381.856 193.261C381.856 197.521 385.467 200.975 389.921 200.975C394.376 200.975 397.986 197.521 397.986 193.261C397.986 189 394.376 185.547 389.921 185.547Z" fill="#0199FE"/>
<path d="M163.473 233.851C157.47 233.851 152.603 238.561 152.603 244.371C152.603 250.181 157.47 254.891 163.473 254.891C169.477 254.891 174.344 250.181 174.344 244.371C174.344 238.561 169.477 233.851 163.473 233.851Z" fill="#0199FE"/>
<path d="M127.865 110.133C123.493 110.133 119.949 106.589 119.949 102.217C119.949 97.8448 123.493 94.3005 127.865 94.3005C132.237 94.3005 135.781 97.8448 135.781 102.217C135.781 106.589 132.237 110.133 127.865 110.133Z" fill="#0199FE"/>
<path d="M389.653 255.097C385.995 255.097 383.03 252.132 383.03 248.474C383.03 244.817 385.995 241.852 389.653 241.852C393.31 241.852 396.275 244.817 396.275 248.474C396.275 252.132 393.31 255.097 389.653 255.097Z" fill="#E1E4E5"/>
<path d="M112.578 203.538C108.731 203.538 105.612 200.419 105.612 196.572C105.612 192.725 108.731 189.606 112.578 189.606C116.425 189.606 119.544 192.725 119.544 196.572C119.544 200.419 116.425 203.538 112.578 203.538Z" fill="#E1E4E5"/>
<path d="M189.011 282.324C187.115 282.324 185.579 280.787 185.579 278.891C185.579 276.995 187.115 275.459 189.011 275.459C190.907 275.459 192.443 276.995 192.443 278.891C192.443 280.787 190.907 282.324 189.011 282.324Z" fill="#E1E4E5"/>
<path d="M354.894 82.086C352.001 82.086 349.655 79.7405 349.655 76.8472C349.655 73.9539 352.001 71.6084 354.894 71.6084C357.787 71.6084 360.133 73.9539 360.133 76.8472C360.133 79.7405 357.787 82.086 354.894 82.086Z" fill="#E1E4E5"/>
<path d="M149.285 118.605C149.775 120.433 148.69 122.312 146.862 122.802C145.034 123.292 143.155 122.207 142.665 120.379C142.175 118.551 143.26 116.672 145.088 116.182C146.916 115.692 148.796 116.777 149.285 118.605Z" fill="#E1E4E5"/>
<path d="M350.48 170.197C348.543 170.197 346.973 168.941 346.973 167.392C346.973 165.843 348.543 164.587 350.48 164.587C352.416 164.587 353.986 165.843 353.986 167.392C353.986 168.941 352.416 170.197 350.48 170.197Z" fill="#E1E4E5"/>
<path d="M431.974 138.832H432.066C432.609 146.528 438.333 146.647 438.333 146.647C438.333 146.647 432.021 146.77 432.021 155.663C432.021 146.77 425.709 146.647 425.709 146.647C425.709 146.647 431.431 146.528 431.974 138.832V138.832ZM183.113 35.2693H183.271C184.206 48.7384 194.064 48.9455 194.064 48.9455C194.064 48.9455 183.194 49.1615 183.194 64.7247C183.194 49.1615 172.323 48.9455 172.323 48.9455C172.323 48.9455 182.177 48.7384 183.113 35.2693V35.2693Z" fill="#E1E4E5"/>
<path fill-rule="evenodd" clip-rule="evenodd" d="M164.759 123.652C159.597 137.124 157.32 152.041 158.677 167.651C159.145 173.03 160.072 178.358 161.448 183.579L174.931 179.715C177.971 178.844 181.191 178.814 184.247 179.629C187.303 180.444 190.081 182.073 192.284 184.342L215.219 207.968C216.711 209.505 218.515 210.702 220.511 211.479C222.507 212.256 224.646 212.594 226.784 212.471L227.159 212.449C238.038 211.819 246.834 221.192 245.516 232.01L242.617 255.8C244.187 256.016 245.768 256.195 247.359 256.333C252.286 256.761 257.144 256.828 261.909 256.556C259.83 254.364 258.354 251.671 257.626 248.74C256.898 245.808 256.942 242.737 257.755 239.827L262.284 223.609C264.577 215.395 272.465 210.036 280.947 210.929L299.633 212.898C312.113 214.212 318.996 227.738 313.24 238.476C318.093 235.001 322.619 231.09 326.762 226.792L315.437 193.626C314.722 191.532 313.55 189.624 312.006 188.039C310.462 186.454 308.585 185.232 306.51 184.462L285.603 176.703C273.597 172.246 270.303 156.817 279.442 147.847L331.647 96.6022C322.854 85.9876 311.882 77.2124 299.477 71.0189L285.22 116.832C284.28 119.852 282.538 122.56 280.18 124.668C277.822 126.776 274.936 128.205 271.83 128.801L234.585 135.956C232.483 136.36 230.493 137.212 228.749 138.453C227.005 139.694 225.549 141.296 224.479 143.151L222.939 145.82C217.5 155.248 204.858 157.463 196.536 150.447L164.759 123.652V123.652ZM240.086 255.415L242.976 231.701C244.101 222.467 236.593 214.466 227.306 215.003L226.932 215.025C224.428 215.17 221.921 214.774 219.583 213.864C217.245 212.954 215.13 211.551 213.383 209.751L190.448 186.125C188.568 184.188 186.197 182.797 183.588 182.102C180.98 181.406 178.231 181.432 175.636 182.175L162.133 186.044C172.525 221.597 203.069 249.28 240.086 255.415V255.415ZM353.742 149.95C356.252 178.816 346.338 205.303 328.742 224.675L317.858 192.8C317.021 190.346 315.648 188.11 313.839 186.253C312.03 184.396 309.831 182.965 307.401 182.063L286.493 174.303C276.246 170.5 273.433 157.33 281.235 149.673L333.262 98.6034C344.659 113.103 352.078 130.811 353.742 149.95V149.95ZM165.758 121.148L198.186 148.49C205.289 154.479 216.08 152.588 220.723 144.541L222.262 141.872C223.516 139.7 225.222 137.823 227.265 136.368C229.308 134.914 231.64 133.916 234.103 133.443L271.347 126.289C273.998 125.779 276.462 124.56 278.475 122.761C280.487 120.961 281.974 118.649 282.777 116.072L297.146 69.8944C287.197 65.2529 276.379 62.2553 265.06 61.2683C220.457 57.39 181.526 83.1809 165.758 121.148V121.148ZM265.274 256.306C280.825 254.887 295.308 249.855 307.88 242.052L310.214 238.552C316.435 229.22 310.519 216.618 299.365 215.443L280.679 213.474C273.44 212.712 266.707 217.286 264.749 224.298L260.22 240.516C259.507 243.067 259.487 245.762 260.161 248.324C260.835 250.886 262.18 253.222 264.056 255.092L265.274 256.306V256.306Z" fill="#0199FE"/>
<path d="M344.77 260.312C349.032 257.393 349.453 250.592 349.453 250.592C349.453 250.592 342.964 248.528 338.704 251.45C334.443 254.369 334.02 261.166 334.02 261.166C334.02 261.166 340.509 263.23 344.77 260.312V260.312Z" fill="#E1E4E5"/>
<path d="M243.517 152.999C241.314 152.999 239.528 154.785 239.528 156.988C239.528 159.191 241.314 160.977 243.517 160.977C245.72 160.977 247.506 159.191 247.506 156.988C247.506 154.785 245.72 152.999 243.517 152.999Z" fill="white"/>
<path d="M328.628 70.1919C324.876 70.1919 321.835 67.1503 321.835 63.3983C321.835 59.6463 324.876 56.6047 328.628 56.6047C332.38 56.6047 335.422 59.6463 335.422 63.3983C335.422 67.1503 332.38 70.1919 328.628 70.1919Z" fill="#0199FE"/>
<path d="M421.218 180.56C418.214 180.56 415.779 178.125 415.779 175.121C415.779 172.116 418.214 169.681 421.218 169.681C424.223 169.681 426.658 172.116 426.658 175.121C426.658 178.125 424.223 180.56 421.218 180.56Z" fill="#E1E4E5"/>
<path d="M262.421 290.603C259.22 290.603 256.625 288.008 256.625 284.807C256.625 281.606 259.22 279.011 262.421 279.011C265.622 279.011 268.217 281.606 268.217 284.807C268.217 288.008 265.622 290.603 262.421 290.603Z" fill="#E1E4E5"/>
<path d="M110.542 154.683C107.974 154.683 105.893 152.602 105.893 150.034C105.893 147.467 107.974 145.386 110.542 145.386C113.109 145.386 115.19 147.467 115.19 150.034C115.19 152.602 113.109 154.683 110.542 154.683Z" fill="#E1E4E5"/>
<path d="M389.254 97.0493C385.335 97.0493 382.158 93.8724 382.158 89.9535C382.158 86.0346 385.335 82.8577 389.254 82.8577C393.173 82.8577 396.35 86.0346 396.35 89.9535C396.35 93.8724 393.173 97.0493 389.254 97.0493Z" fill="#E1E4E5"/>
<path d="M159.389 85.563C155.979 85.563 153.214 82.7985 153.214 79.3884C153.214 75.9783 155.979 73.2139 159.389 73.2139C162.799 73.2139 165.563 75.9783 165.563 79.3884C165.563 82.7985 162.799 85.563 159.389 85.563Z" fill="#E1E4E5"/>
<path d="M373.167 221.857C370.543 221.857 368.417 220.156 368.417 218.057C368.417 215.959 370.543 214.258 373.167 214.258C375.79 214.258 377.916 215.959 377.916 218.057C377.916 220.156 375.79 221.857 373.167 221.857Z" fill="#E1E4E5"/>
<path d="M314.629 285.503C310.792 287.375 306.483 286.437 305.005 283.407C303.527 280.378 305.44 276.404 309.277 274.532C313.114 272.66 317.423 273.599 318.901 276.628C320.379 279.658 318.466 283.631 314.629 285.503Z" fill="#E1E4E5"/>
<path d="M295.025 41.5082C296.31 46.3033 293.464 51.232 288.669 52.5168C283.874 53.8016 278.945 50.956 277.66 46.161C276.376 41.3659 279.221 36.4372 284.016 35.1524C288.811 33.8675 293.74 36.7131 295.025 41.5082Z" fill="#E1E4E5"/>
<path d="M222.317 261.126H222.441C223.177 271.55 230.931 271.711 230.931 271.711C230.931 271.711 222.381 271.878 222.381 283.924C222.381 271.878 213.832 271.711 213.832 271.711C213.832 271.711 221.581 271.55 222.317 261.126Z" fill="#E1E4E5"/>
<path d="M263.793 81.5143C263.793 67.2769 252.251 55.7351 238.014 55.7351C223.776 55.7351 212.234 67.2769 212.234 81.5143C212.234 95.7518 223.776 107.294 238.014 107.294C252.251 107.294 263.793 95.7518 263.793 81.5143Z" fill="#0199FE" stroke="white" stroke-width="6"/>
<path fill-rule="evenodd" clip-rule="evenodd" d="M248.97 91.6278V93.2399C248.97 94.1301 248.258 94.8521 247.379 94.8521H228.288C227.41 94.8521 226.697 94.1301 226.697 93.2399V91.6022C226.697 86.7242 232.199 83.5545 237.833 83.5545C243.469 83.5545 248.97 86.7258 248.97 91.6022M241.826 69.3923C244.032 71.5979 244.032 75.175 241.826 77.3805C239.621 79.5866 236.044 79.5866 233.838 77.3805C231.632 75.175 231.632 71.5979 233.838 69.3923C236.044 67.1863 239.621 67.1863 241.826 69.3923Z" fill="white"/>
<path d="M379.764 145.618C379.764 131.381 368.222 119.839 353.984 119.839C339.747 119.839 328.205 131.381 328.205 145.618C328.205 159.856 339.747 171.398 353.984 171.398C368.222 171.398 379.764 159.856 379.764 145.618Z" fill="#0199FE" stroke="white" stroke-width="6"/>
<path fill-rule="evenodd" clip-rule="evenodd" d="M364.943 155.732V157.345C364.943 158.234 364.23 158.957 363.352 158.957H344.261C343.383 158.957 342.67 158.234 342.67 157.345V155.706C342.67 150.828 348.171 147.659 353.807 147.659C359.442 147.659 364.943 150.83 364.943 155.706M357.8 133.496C360.006 135.702 360.006 139.279 357.8 141.485C355.594 143.691 352.017 143.691 349.811 141.485C347.605 139.279 347.605 135.702 349.811 133.496C352.017 131.29 355.594 131.29 357.8 133.496Z" fill="white"/>
<path d="M173.973 176.885C173.973 162.647 162.431 151.105 148.193 151.105C133.956 151.105 122.414 162.647 122.414 176.885C122.414 191.122 133.956 202.664 148.193 202.664C162.431 202.664 173.973 191.122 173.973 176.885Z" fill="#0199FE" stroke="white" stroke-width="6"/>
<path fill-rule="evenodd" clip-rule="evenodd" d="M159.151 186.999V188.611C159.151 189.501 158.438 190.223 157.56 190.223H138.469C137.59 190.223 136.878 189.501 136.878 188.611V186.973C136.878 182.095 142.379 178.925 148.014 178.925C153.649 178.925 159.151 182.096 159.151 186.973M152.007 164.763C154.213 166.969 154.213 170.545 152.007 172.751C149.801 174.958 146.224 174.958 144.018 172.751C141.812 170.545 141.812 166.969 144.018 164.763C146.224 162.557 149.801 162.557 152.007 164.763Z" fill="white"/>
</g>
<defs>
<linearGradient id="paint0_linear_425_91" x1="168.533" y1="343.01" x2="117.343" y2="106.286" gradientUnits="userSpaceOnUse">
<stop stop-color="white"/>
<stop offset="1" stop-color="#EEEEEE"/>
</linearGradient>
<linearGradient id="paint1_linear_425_91" x1="367.968" y1="133.325" x2="464.626" y2="87.6606" gradientUnits="userSpaceOnUse">
<stop stop-color="white"/>
<stop offset="1" stop-color="#EEEEEE"/>
</linearGradient>
<linearGradient id="paint2_linear_425_91" x1="452.351" y1="260.953" x2="373.551" y2="177.861" gradientUnits="userSpaceOnUse">
<stop stop-color="white"/>
<stop offset="1" stop-color="#EEEEEE"/>
</linearGradient>
<linearGradient id="paint3_linear_425_91" x1="116.894" y1="205.041" x2="38.4376" y2="82.0531" gradientUnits="userSpaceOnUse">
<stop stop-color="#0199FE"/>
<stop offset="1" stop-color="#EEEEEE"/>
</linearGradient>
<clipPath id="clip0_425_91">
<rect width="501" height="334" fill="white"/>
</clipPath>
</defs>
</svg>
