<svg width="498" height="367" viewBox="0 0 498 367" fill="none" xmlns="http://www.w3.org/2000/svg">
<g clip-path="url(#clip0_426_268)">
<path d="M284.63 237.795V297.357M330.907 177.995V297.36M238.352 207.887V297.359M192.312 237.795V297.357M146.035 177.995V297.36M99.7578 267.69V297.36" stroke="#0199FE" stroke-width="20" stroke-linecap="round" stroke-linejoin="round"/>
<path d="M188.757 268.221C191.517 268.221 193.754 270.694 193.754 273.745C193.754 276.795 191.517 279.269 188.757 279.269C185.997 279.269 183.76 276.795 183.76 273.745C183.76 270.694 185.997 268.221 188.757 268.221Z" fill="white"/>
<path d="M399.486 235.001H368.229M399.486 255.498H368.229M368.229 217.725H389.067M368.229 272.775H389.067M368.229 200.448H373.439M368.229 290.051H373.438" stroke="#E1E4E5" stroke-width="7" stroke-linecap="round" stroke-linejoin="round"/>
<path d="M389.528 167.398L338.591 144.983C337.812 144.639 336.979 144.469 336.141 144.482C335.302 144.494 334.474 144.69 333.704 145.056L283.345 169.022M283.339 168.891L232.402 146.475C231.623 146.131 230.79 145.961 229.951 145.974C229.113 145.986 228.285 146.182 227.515 146.549L177.156 170.514" stroke="#E1E4E5" stroke-width="4" stroke-linecap="round" stroke-linejoin="round"/>
<path d="M232.122 139.983C235.21 141.342 236.716 145.21 235.487 148.622C234.258 152.035 230.759 153.7 227.672 152.341C224.585 150.983 223.078 147.115 224.307 143.702C225.536 140.29 229.035 138.625 232.122 139.983Z" fill="#E1E4E5"/>
<path d="M178.886 164.78C181.973 166.138 183.479 170.006 182.25 173.418C181.021 176.831 177.523 178.496 174.435 177.138C171.348 175.779 169.842 171.911 171.071 168.499C172.3 165.086 175.799 163.421 178.886 164.78Z" fill="#E1E4E5"/>
<path d="M285.077 163.288C288.165 164.647 289.671 168.515 288.442 171.927C287.213 175.34 283.714 177.005 280.627 175.646C277.54 174.288 276.033 170.42 277.262 167.007C278.491 163.595 281.99 161.93 285.077 163.288Z" fill="#E1E4E5"/>
<path d="M338.079 139.142C341.167 140.501 342.673 144.369 341.444 147.781C340.215 151.194 336.716 152.859 333.629 151.5C330.542 150.142 329.035 146.274 330.264 142.862C331.493 139.449 334.992 137.784 338.079 139.142Z" fill="#E1E4E5"/>
<path d="M391.675 162.684C394.762 164.043 396.269 167.911 395.04 171.323C393.811 174.736 390.312 176.401 387.224 175.042C384.137 173.684 382.631 169.816 383.86 166.403C385.089 162.991 388.588 161.326 391.675 162.684Z" fill="#E1E4E5"/>
<path fill-rule="evenodd" clip-rule="evenodd" d="M83.1927 213.409H84.9501C85.3745 213.409 85.717 213.791 85.717 214.257V216.199C85.717 216.669 85.3712 217.047 84.9501 217.047H83.1927C82.9895 217.046 82.7949 216.956 82.6512 216.798C82.5075 216.639 82.4265 216.424 82.4258 216.199V214.257C82.4256 214.146 82.4453 214.035 82.4837 213.932C82.5222 213.829 82.5787 213.736 82.6499 213.657C82.7212 213.578 82.8058 213.516 82.899 213.473C82.9921 213.431 83.0919 213.409 83.1927 213.409ZM89.2844 213.409H91.0417C91.4628 213.409 91.8087 213.791 91.8087 214.257V216.199C91.8087 216.669 91.4628 217.047 91.0417 217.047H89.2844C89.0812 217.046 88.8865 216.956 88.7429 216.798C88.5992 216.639 88.5182 216.424 88.5174 216.199V214.257C88.5174 213.791 88.8633 213.409 89.2844 213.409ZM95.3804 213.409H97.1378C97.5589 213.409 97.9047 213.791 97.9047 214.257V216.199C97.9047 216.669 97.5589 217.047 97.1378 217.047H95.3804C95.1772 217.046 94.9826 216.956 94.8389 216.798C94.6953 216.639 94.6142 216.424 94.6135 216.199V214.257C94.6133 214.146 94.633 214.035 94.6714 213.932C94.7099 213.829 94.7664 213.736 94.8376 213.657C94.9089 213.578 94.9935 213.516 95.0867 213.473C95.1798 213.431 95.2796 213.409 95.3804 213.409ZM101.473 213.409H103.229C103.651 213.409 103.996 213.791 103.996 214.257V216.199C103.996 216.669 103.651 217.047 103.229 217.047H101.473C101.269 217.047 101.073 216.958 100.929 216.799C100.785 216.64 100.703 216.424 100.702 216.199V214.257C100.704 214.032 100.786 213.817 100.93 213.659C101.074 213.5 101.269 213.411 101.473 213.409ZM107.565 213.409H109.322C109.747 213.409 110.092 213.791 110.092 214.257V216.199C110.092 216.669 109.747 217.047 109.322 217.047H107.565C107.362 217.046 107.167 216.956 107.023 216.798C106.88 216.639 106.799 216.424 106.798 216.199V214.257C106.798 213.791 107.144 213.409 107.565 213.409ZM89.5079 220.752H91.2647C91.6864 220.752 92.0317 221.135 92.0317 221.6V223.546C92.0317 224.012 91.6864 224.394 91.2647 224.394H89.5079C89.3045 224.394 89.1096 224.305 88.9658 224.146C88.822 223.987 88.7411 223.771 88.741 223.546V221.604C88.7405 221.492 88.7599 221.381 88.7983 221.278C88.8366 221.175 88.893 221.081 88.9643 221.002C89.0355 220.923 89.1203 220.86 89.2136 220.817C89.3069 220.774 89.4069 220.752 89.5079 220.752ZM95.6001 220.752H97.3569C97.778 220.752 98.1238 221.135 98.1238 221.6V223.546C98.1238 224.012 97.778 224.394 97.3569 224.394H95.6001C95.3969 224.393 95.2023 224.304 95.0586 224.145C94.9149 223.986 94.8339 223.771 94.8332 223.546V221.604C94.8326 221.492 94.852 221.381 94.8903 221.278C94.9286 221.175 94.985 221.081 95.0563 221.002C95.1276 220.922 95.2123 220.86 95.3057 220.817C95.399 220.774 95.4991 220.752 95.6001 220.752ZM101.692 220.752H103.45C103.874 220.752 104.22 221.135 104.22 221.6V223.546C104.22 224.012 103.874 224.394 103.45 224.394H101.692C101.489 224.393 101.295 224.304 101.151 224.145C101.007 223.986 100.926 223.771 100.925 223.546V221.604C100.925 221.135 101.271 220.752 101.692 220.752ZM95.3804 205.52H97.1378C97.5589 205.52 97.9047 205.902 97.9047 206.368V208.31C97.9047 208.78 97.5589 209.158 97.1378 209.158H95.3804C95.1773 209.157 94.9827 209.068 94.8391 208.909C94.6955 208.75 94.6144 208.535 94.6135 208.31V206.368C94.6133 206.256 94.633 206.146 94.6714 206.043C94.7099 205.94 94.7664 205.847 94.8376 205.768C94.9089 205.689 94.9935 205.627 95.0867 205.584C95.1798 205.542 95.2796 205.52 95.3804 205.52ZM101.473 205.52H103.229C103.651 205.52 103.996 205.902 103.996 206.368V208.31C103.996 208.78 103.651 209.158 103.229 209.158H101.473C101.269 209.158 101.073 209.069 100.929 208.91C100.785 208.751 100.703 208.536 100.702 208.31V206.368C100.704 206.143 100.786 205.928 100.93 205.77C101.075 205.611 101.269 205.521 101.473 205.52Z" fill="#0199FE"/>
<path d="M82.7271 186.487C75.5592 188.365 67.9785 181.645 67.9785 181.645C67.9785 181.645 72.0239 171.885 79.194 170.014C86.3619 168.137 93.9404 174.851 93.9404 174.851C93.9404 174.851 89.8949 184.61 82.7271 186.487Z" fill="url(#paint0_linear_426_268)"/>
<path d="M413.455 276.793C410.2 276.793 407.561 279.71 407.561 283.308C407.561 286.906 410.2 289.823 413.455 289.823C416.711 289.823 419.35 286.906 419.35 283.308C419.35 279.71 416.711 276.793 413.455 276.793Z" fill="#0199FE"/>
<path d="M120.072 162.089C117.628 162.089 115.647 159.899 115.647 157.197C115.647 154.495 117.628 152.305 120.072 152.305C122.517 152.305 124.498 154.495 124.498 157.197C124.498 159.899 122.517 162.089 120.072 162.089Z" fill="#0199FE"/>
<path d="M362.009 125.72C357.343 125.72 353.56 121.539 353.56 116.381C353.56 111.223 357.343 107.042 362.009 107.042C366.675 107.042 370.457 111.223 370.457 116.381C370.457 121.539 366.675 125.72 362.009 125.72Z" fill="#0199FE"/>
<path d="M440.585 311.497C438.631 311.497 437.047 309.892 437.047 307.912C437.047 305.932 438.631 304.327 440.585 304.327C442.539 304.327 444.123 305.932 444.123 307.912C444.123 309.892 442.539 311.497 440.585 311.497Z" fill="#E1E4E5"/>
<path d="M63.6122 260.052C61.0082 260.052 58.8972 257.718 58.8972 254.84C58.8972 251.961 61.0082 249.628 63.6122 249.628C66.2162 249.628 68.3271 251.961 68.3271 254.84C68.3271 257.718 66.2162 260.052 63.6122 260.052Z" fill="#0199FE"/>
<path d="M286.102 211.134C284.547 211.134 283.286 209.741 283.286 208.022C283.286 206.303 284.547 204.909 286.102 204.909C287.657 204.909 288.918 206.303 288.918 208.022C288.918 209.741 287.657 211.134 286.102 211.134Z" fill="#E1E4E5"/>
<path d="M280.137 125.723C277.915 125.723 276.114 123.731 276.114 121.275C276.114 118.819 277.915 116.828 280.137 116.828C282.359 116.828 284.16 118.819 284.16 121.275C284.16 123.731 282.359 125.723 280.137 125.723Z" fill="#E1E4E5"/>
<path d="M429.631 216.535C429.631 219.053 427.784 221.094 425.507 221.094C423.229 221.094 421.383 219.053 421.383 216.535C421.383 214.017 423.229 211.976 425.507 211.976C427.784 211.976 429.631 214.017 429.631 216.535Z" fill="#E1E4E5"/>
<path d="M413.314 114.993H413.419C414.043 124.755 420.609 124.905 420.609 124.905C420.609 124.905 413.368 125.061 413.368 136.34C413.368 125.061 406.127 124.905 406.127 124.905C406.127 124.905 412.691 124.755 413.314 114.993ZM164.029 122.945H164.097C164.502 129.549 168.767 129.651 168.767 129.651C168.767 129.651 164.064 129.756 164.064 137.387C164.064 129.756 159.36 129.651 159.36 129.651C159.36 129.651 163.624 129.549 164.029 122.945Z" fill="#E1E4E5"/>
</g>
<defs>
<linearGradient id="paint0_linear_426_268" x1="55.7355" y1="191.154" x2="120.633" y2="163.418" gradientUnits="userSpaceOnUse">
<stop stop-color="white"/>
<stop offset="1" stop-color="#0199FE"/>
</linearGradient>
<clipPath id="clip0_426_268">
<rect width="498" height="367" fill="white"/>
</clipPath>
</defs>
</svg>
