<svg width="498" height="331" viewBox="0 0 498 331" fill="none" xmlns="http://www.w3.org/2000/svg">
<g clip-path="url(#clip0_426_290)">
<path d="M249.465 77.2753L242.147 90.0056L241.973 90.3085C241.092 91.8647 241.514 93.8237 242.953 94.8669L252.892 102.077C253.058 102.196 253.207 102.326 253.345 102.464C254.283 103.448 254.599 104.911 254.051 106.179C250.924 113.704 249.326 121.754 249.369 129.894C249.364 130.223 249.317 130.55 249.229 130.868C248.888 132.039 247.925 132.98 246.709 133.292L236.752 135.749C235.443 136.083 234.46 137.143 234.176 138.402C234.102 138.787 234.069 139.206 234.125 139.629L236.158 154.474C236.403 156.297 238.036 157.654 239.9 157.552L253.528 156.858C254.186 156.825 254.839 156.98 255.412 157.304C255.984 157.628 256.452 158.108 256.761 158.688C257.699 160.384 258.692 162.042 259.792 163.67C261.815 166.666 264.102 169.476 266.626 172.067L266.637 172.081C267.672 173.144 267.945 174.701 267.321 176.041L261.482 188.57L261.196 189.202C260.432 190.804 261.04 192.763 262.609 193.655L275.651 201.126C277.246 202.024 279.275 201.605 280.353 200.123L288.404 189.1C289.298 187.872 290.879 187.352 292.306 187.817C298.379 189.686 304.712 190.626 311.074 190.561C311.861 190.56 312.626 190.822 313.246 191.305C313.866 191.788 314.305 192.465 314.494 193.227L317.447 204.985C317.661 205.841 318.185 206.588 318.919 207.081C319.652 207.575 320.543 207.78 321.419 207.658L336.375 205.633C338.142 205.388 339.425 203.834 339.33 202.077L338.532 186.105C338.457 184.75 339.17 183.476 340.357 182.807C341.834 181.985 343.276 181.1 344.678 180.155C347.301 178.395 349.785 176.439 352.111 174.304C353.14 173.341 354.645 173.082 355.92 173.693L371.019 180.703C371.818 181.073 372.726 181.13 373.565 180.865C374.404 180.6 375.113 180.031 375.552 179.271L383.072 166.214C383.859 164.83 383.597 163.076 382.482 161.984C382.366 161.874 382.24 161.75 382.092 161.659L369.828 152.748C368.684 151.925 368.13 150.517 368.445 149.151C368.469 149.032 368.493 148.91 368.539 148.794C368.657 148.443 368.773 148.113 368.859 147.742C370.17 143.578 371.03 139.285 371.422 134.938C371.529 133.484 372.599 132.263 374.044 131.92L386.502 128.808C388.269 128.374 389.419 126.66 389.168 124.859L388.722 121.558L387.133 110.039C386.896 108.23 385.296 106.919 383.461 106.998L370.036 107.681C368.602 107.766 367.297 106.924 366.725 105.611C365.2 102.09 363.35 98.719 361.198 95.5405C359.589 93.1599 357.812 90.896 355.881 88.766L357.11 86.139L362.129 75.3533C362.764 74.0244 362.458 72.4505 361.433 71.4652C361.22 71.2505 360.976 71.0686 360.709 70.9256L347.585 63.3838C346.024 62.5056 344.056 62.948 342.998 64.3713L337.51 71.9142C336.582 73.1864 334.864 73.6901 333.4 73.1053C327.347 70.678 320.945 69.2239 314.435 68.7973C312.897 68.7008 311.623 67.651 311.289 66.199L307.564 51.3354C307.359 50.5323 306.865 49.8323 306.176 49.3688C305.487 48.9052 304.651 48.7104 303.827 48.8215L288.712 50.8919C286.92 51.1341 285.623 52.6958 285.729 54.4672L286.564 71.0845C286.649 72.5139 285.838 73.8346 284.525 74.4436C281.724 75.7395 278.999 77.298 276.339 79.0848C274.921 80.0367 273.543 81.0467 272.209 82.1123C271.699 82.5168 271.086 82.773 270.439 82.8526C269.793 82.9322 269.136 82.8322 268.543 82.5636L254.065 75.8504C253.259 75.4698 252.338 75.4051 251.486 75.669C250.634 75.9329 249.913 76.5062 249.465 77.2753ZM281.209 144.735C275.593 134.024 276.085 122.705 280.832 114.533C297.517 85.9166 337.929 93.3879 343.497 125.551C344.819 133.801 342.81 142.591 336.008 150.586C320.105 169.08 291.957 165.202 281.209 144.735ZM160.332 112.229L150.809 116.659L150.582 116.764C149.426 117.311 148.863 118.628 149.273 119.826L152.099 128.111C152.147 128.249 152.181 128.385 152.204 128.522C152.346 129.482 151.926 130.465 151.083 130.981C146.156 134.083 141.9 138.136 138.566 142.902C138.427 143.091 138.264 143.263 138.082 143.412C137.738 143.683 137.33 143.861 136.897 143.927C136.464 143.994 136.021 143.948 135.611 143.794L128.786 141.145C128.349 140.982 127.876 140.941 127.418 141.028C126.96 141.115 126.535 141.325 126.188 141.637C125.973 141.838 125.792 142.073 125.652 142.332L120.714 151.83C120.104 152.994 120.497 154.456 121.627 155.161L129.868 160.345C130.265 160.596 130.583 160.954 130.783 161.378C130.984 161.802 131.059 162.274 131 162.739C130.843 164.118 130.747 165.503 130.714 166.89C130.658 169.468 130.833 172.047 131.237 174.594L131.238 174.606C131.321 175.112 131.248 175.632 131.027 176.095C130.806 176.558 130.449 176.943 130.003 177.198L121.426 182.116L120.998 182.368C119.89 182.99 119.438 184.382 119.986 185.546L124.515 195.256C125.075 196.434 126.432 197.021 127.672 196.599L136.92 193.467C137.949 193.117 139.086 193.462 139.727 194.319C142.501 197.899 145.809 201.046 149.548 203.617C150.008 203.939 150.347 204.405 150.509 204.942C150.672 205.478 150.649 206.053 150.445 206.576L147.317 214.649C147.089 215.237 147.087 215.888 147.311 216.477C147.535 217.065 147.971 217.551 148.533 217.839L158.097 222.79C159.23 223.372 160.62 222.991 161.289 221.927L167.413 212.278C167.667 211.875 168.029 211.552 168.458 211.344C168.887 211.136 169.365 211.052 169.839 211.101C171.031 211.227 172.237 211.301 173.456 211.325C175.713 211.374 177.97 211.251 180.208 210.958C181.206 210.819 182.192 211.285 182.684 212.164L188.603 222.448C188.917 222.991 189.423 223.397 190.023 223.587C190.622 223.776 191.271 223.735 191.841 223.471L201.617 218.936C202.115 218.698 202.522 218.305 202.775 217.815C203.028 217.325 203.113 216.766 203.018 216.224C202.995 216.112 202.972 215.988 202.924 215.874L199.443 205.643C199.115 204.694 199.372 203.645 200.12 202.977C200.183 202.917 200.247 202.856 200.322 202.807C200.536 202.65 200.74 202.506 200.943 202.324C203.426 200.432 205.699 198.279 207.722 195.902C208.384 195.098 209.512 194.824 210.497 195.216L219.052 198.509C220.263 198.981 221.641 198.452 222.238 197.298L223.34 195.188L227.165 187.813C227.773 186.66 227.38 185.239 226.276 184.533L218.159 179.425C217.287 178.887 216.873 177.86 217.081 176.859C217.644 174.179 217.955 171.453 218.01 168.715C218.053 166.665 217.95 164.615 217.701 162.58L219.503 161.551L226.882 157.314C227.325 157.066 227.678 156.687 227.893 156.229C228.107 155.77 228.173 155.257 228.08 154.76C228.045 154.547 227.978 154.341 227.881 154.148L223.333 144.364C222.784 143.211 221.453 142.662 220.248 143.059L213.933 145.21C212.866 145.572 211.656 145.162 211.043 144.22C208.511 140.32 205.375 136.846 201.751 133.927C200.893 133.24 200.582 132.105 200.987 131.121L204.945 120.918C205.157 120.365 205.158 119.754 204.947 119.201C204.736 118.648 204.328 118.191 203.802 117.918L194.126 112.927C192.979 112.333 191.578 112.713 190.909 113.791L184.54 123.832C184 124.701 182.981 125.139 181.964 124.956C179.795 124.564 177.56 124.355 175.271 124.308C174.051 124.282 172.83 124.306 171.612 124.38C171.147 124.407 170.684 124.306 170.273 124.087C169.863 123.869 169.521 123.541 169.285 123.141L163.605 113.285C163.292 112.732 162.781 112.317 162.175 112.121C161.569 111.926 160.911 111.965 160.332 112.229ZM151.025 164.622C152.168 156.067 157.125 149.663 163.267 146.84C184.813 136.981 205.317 157.915 195.296 178.971C192.664 184.328 187.864 188.635 180.595 190.511C163.683 194.783 148.855 180.976 151.025 164.622ZM225.905 207.344L220.753 212.495L220.631 212.617C220.33 212.92 220.151 213.323 220.129 213.748C220.106 214.174 220.242 214.593 220.509 214.926L224.332 219.656C224.396 219.734 224.45 219.816 224.499 219.899C224.821 220.491 224.782 221.232 224.356 221.768C221.884 224.962 220.078 228.616 219.043 232.515C218.998 232.672 218.933 232.823 218.85 232.963C218.691 233.222 218.467 233.434 218.201 233.581C217.934 233.727 217.634 233.803 217.33 233.8L212.246 233.694C211.922 233.691 211.604 233.777 211.326 233.943C211.049 234.108 210.822 234.346 210.67 234.632C210.578 234.814 210.516 235.01 210.487 235.213L209.537 242.579C209.481 243.019 209.593 243.465 209.851 243.827C210.109 244.189 210.493 244.441 210.929 244.534L217.542 245.956C217.861 246.025 218.153 246.183 218.385 246.412C218.618 246.641 218.779 246.931 218.852 247.248C219.081 248.181 219.342 249.102 219.657 250.023C220.238 251.717 220.968 253.356 221.84 254.921L221.844 254.93C222.019 255.24 222.095 255.596 222.062 255.95C222.029 256.305 221.888 256.641 221.658 256.913L217.241 262.158L217.022 262.423C216.744 262.751 216.6 263.171 216.619 263.599C216.637 264.028 216.817 264.434 217.122 264.737L222.396 269.991C223.043 270.626 224.069 270.687 224.776 270.116L230.057 265.877C230.341 265.647 230.691 265.512 231.056 265.492C231.422 265.472 231.784 265.568 232.091 265.766C234.756 267.446 237.666 268.704 240.718 269.495C241.095 269.596 241.427 269.82 241.661 270.131C241.896 270.442 242.018 270.823 242.01 271.212L241.9 277.219C241.892 277.656 242.046 278.081 242.333 278.412C242.62 278.743 243.02 278.956 243.455 279.01L250.875 279.966C251.297 280.019 251.724 279.913 252.071 279.669C252.418 279.424 252.66 279.058 252.75 278.644L254.437 270.898C254.507 270.575 254.665 270.278 254.895 270.041C255.125 269.803 255.417 269.635 255.738 269.554C256.551 269.351 257.356 269.112 258.149 268.84C259.632 268.336 261.075 267.72 262.464 266.997C263.081 266.669 263.836 266.739 264.367 267.195L270.685 272.495C271.02 272.774 271.447 272.919 271.883 272.9C272.319 272.881 272.732 272.7 273.04 272.393L278.331 267.112C278.599 266.839 278.77 266.485 278.818 266.106C278.866 265.726 278.788 265.342 278.596 265.011C278.555 264.943 278.51 264.868 278.451 264.806L273.736 258.961C273.295 258.421 273.212 257.675 273.54 257.062C273.567 257.008 273.594 256.953 273.631 256.903C273.733 256.75 273.832 256.607 273.921 256.441C275.087 254.617 276.055 252.673 276.806 250.643C277.045 249.961 277.715 249.514 278.451 249.536L284.817 249.65C285.719 249.67 286.491 248.998 286.605 248.103L286.818 246.466L287.55 240.749C287.67 239.853 287.074 239.018 286.186 238.82L279.673 237.419C278.975 237.275 278.46 236.704 278.356 236.002C278.082 234.121 277.633 232.269 277.015 230.471C276.553 229.124 275.996 227.812 275.348 226.544L276.276 225.445L280.075 220.929C280.304 220.662 280.444 220.331 280.474 219.981C280.505 219.631 280.425 219.28 280.246 218.978C280.174 218.848 280.08 218.734 279.969 218.627L274.665 213.328C274.031 212.706 273.032 212.665 272.341 213.21L268.738 216.113C268.129 216.603 267.241 216.622 266.617 216.154C264.034 214.213 261.158 212.693 258.098 211.651C257.374 211.406 256.9 210.74 256.928 210.002L257.071 202.409C257.077 201.998 256.931 201.6 256.661 201.289C256.392 200.978 256.017 200.778 255.608 200.725L248.105 199.77C247.216 199.655 246.393 200.235 246.215 201.097L244.462 209.157C244.318 209.852 243.758 210.38 243.051 210.502C241.543 210.762 240.036 211.157 238.532 211.67C237.73 211.943 236.94 212.249 236.163 212.587C235.867 212.715 235.541 212.759 235.221 212.714C234.901 212.669 234.6 212.536 234.35 212.332L228.291 207.254C227.954 206.968 227.522 206.819 227.08 206.836C226.638 206.852 226.219 207.034 225.905 207.344ZM232.36 243.718C231.059 237.868 232.762 232.514 236.091 229.214C247.783 217.666 266.157 226.445 264.656 242.555C264.221 246.674 262.12 250.622 257.829 253.573C247.823 260.377 234.853 254.897 232.36 243.718Z" fill="#0199FE"/>
<mask id="path-2-inside-1_426_290" fill="white">
<path d="M345.198 216.21L345.346 223.752L345.35 223.931C345.36 224.373 345.533 224.795 345.835 225.118C346.138 225.441 346.549 225.641 346.991 225.68L353.286 226.235C353.391 226.244 353.491 226.261 353.588 226.287C354.262 226.473 354.79 227.033 354.884 227.738C355.496 231.875 356.932 235.848 359.107 239.423C359.195 239.573 359.26 239.731 359.303 239.89C359.381 240.194 359.379 240.514 359.297 240.818C359.215 241.122 359.056 241.399 358.835 241.624L355.095 245.335C354.86 245.574 354.695 245.873 354.619 246.199C354.542 246.525 354.557 246.866 354.661 247.184C354.73 247.375 354.827 247.567 354.965 247.74L359.799 253.745C360.088 254.103 360.503 254.34 360.959 254.409C361.416 254.477 361.882 254.372 362.265 254.114L368.093 250.212C368.374 250.024 368.703 249.919 369.042 249.911C369.38 249.903 369.714 249.99 370.004 250.164C372.473 251.616 375.131 252.723 377.901 253.456L377.909 253.459C378.268 253.551 378.59 253.751 378.831 254.031C379.073 254.31 379.223 254.657 379.261 255.024L380.01 262.084L380.052 262.438C380.139 263.346 380.928 264.048 381.857 264.027L389.594 263.872C390.535 263.846 391.318 263.126 391.403 262.19L392.032 255.207C392.064 254.83 392.215 254.472 392.463 254.186C392.711 253.9 393.044 253.699 393.414 253.613C396.592 252.836 399.63 251.573 402.42 249.868C402.767 249.66 403.174 249.573 403.575 249.623C403.977 249.672 404.35 249.854 404.636 250.141L409.053 254.543C409.375 254.864 409.804 255.055 410.259 255.079C410.713 255.103 411.16 254.958 411.514 254.673L417.574 249.834C417.918 249.559 418.146 249.165 418.212 248.73C418.279 248.296 418.18 247.852 417.935 247.487L413.348 240.66C413.157 240.376 413.049 240.044 413.037 239.702C413.024 239.36 413.108 239.022 413.278 238.724C414.519 236.563 415.502 234.265 416.208 231.877C416.406 231.18 417.003 230.669 417.726 230.602L426.245 229.706C426.695 229.657 427.111 229.443 427.411 229.105C427.711 228.766 427.873 228.328 427.865 227.877L427.721 220.14C427.71 219.744 427.568 219.362 427.318 219.053C427.068 218.745 426.724 218.527 426.338 218.432C426.257 218.414 426.168 218.393 426.08 218.391L418.306 217.701C417.583 217.64 416.966 217.165 416.743 216.481C416.722 216.421 416.7 216.363 416.691 216.299C416.65 216.112 416.613 215.937 416.552 215.751C416.027 213.57 415.268 211.453 414.289 209.434C413.951 208.763 414.098 207.945 414.644 207.411L419.315 202.752C419.978 202.095 420.031 201.035 419.443 200.308L418.37 198.97L414.614 194.315C414.03 193.579 412.976 193.424 412.188 193.944L406.446 197.789C405.835 198.204 405.037 198.178 404.437 197.75C401.623 195.738 398.499 194.198 395.188 193.189L395.034 191.708L394.387 185.63C394.352 185.267 394.204 184.925 393.964 184.651C393.724 184.376 393.404 184.183 393.048 184.099C392.897 184.061 392.742 184.045 392.586 184.052L384.797 184.193C383.876 184.218 383.124 184.933 383.035 185.838L382.614 190.61C382.542 191.415 381.919 192.091 381.116 192.221C377.802 192.748 374.593 193.797 371.608 195.327C370.903 195.689 370.062 195.564 369.531 195.012L363.947 189.446C363.643 189.146 363.239 188.968 362.812 188.945C362.385 188.923 361.965 189.058 361.631 189.324L355.512 194.226C354.785 194.804 354.628 195.836 355.145 196.589L359.919 203.69C360.335 204.298 360.328 205.093 359.91 205.707C359.018 207.018 358.229 208.424 357.53 209.914C357.157 210.707 356.817 211.516 356.511 212.338C356.393 212.651 356.191 212.925 355.927 213.131C355.662 213.337 355.346 213.466 355.013 213.504L346.847 214.366C346.391 214.413 345.969 214.629 345.664 214.97C345.359 215.311 345.193 215.753 345.198 216.21ZM377.091 237.558C375.306 236.472 373.634 235.023 372.135 233.182C371.811 232.795 371.499 232.325 371.193 231.816C369.905 229.61 368.949 226.573 368.916 224.349C368.688 207.337 388.496 199.964 399.479 212.666C399.657 212.877 399.835 213.088 400.009 213.307C401.646 215.34 403.023 219.166 403.086 221.768C403.118 223.075 403.027 224.383 402.815 225.674C400.705 238.019 387.259 243.74 377.091 237.558Z"/>
</mask>
<path d="M345.198 216.21L345.346 223.752L345.35 223.931C345.36 224.373 345.533 224.795 345.835 225.118C346.138 225.441 346.549 225.641 346.991 225.68L353.286 226.235C353.391 226.244 353.491 226.261 353.588 226.287C354.262 226.473 354.79 227.033 354.884 227.738C355.496 231.875 356.932 235.848 359.107 239.423C359.195 239.573 359.26 239.731 359.303 239.89C359.381 240.194 359.379 240.514 359.297 240.818C359.215 241.122 359.056 241.399 358.835 241.624L355.095 245.335C354.86 245.574 354.695 245.873 354.619 246.199C354.542 246.525 354.557 246.866 354.661 247.184C354.73 247.375 354.827 247.567 354.965 247.74L359.799 253.745C360.088 254.103 360.503 254.34 360.959 254.409C361.416 254.477 361.882 254.372 362.265 254.114L368.093 250.212C368.374 250.024 368.703 249.919 369.042 249.911C369.38 249.903 369.714 249.99 370.004 250.164C372.473 251.616 375.131 252.723 377.901 253.456L377.909 253.459C378.268 253.551 378.59 253.751 378.831 254.031C379.073 254.31 379.223 254.657 379.261 255.024L380.01 262.084L380.052 262.438C380.139 263.346 380.928 264.048 381.857 264.027L389.594 263.872C390.535 263.846 391.318 263.126 391.403 262.19L392.032 255.207C392.064 254.83 392.215 254.472 392.463 254.186C392.711 253.9 393.044 253.699 393.414 253.613C396.592 252.836 399.63 251.573 402.42 249.868C402.767 249.66 403.174 249.573 403.575 249.623C403.977 249.672 404.35 249.854 404.636 250.141L409.053 254.543C409.375 254.864 409.804 255.055 410.259 255.079C410.713 255.103 411.16 254.958 411.514 254.673L417.574 249.834C417.918 249.559 418.146 249.165 418.212 248.73C418.279 248.296 418.18 247.852 417.935 247.487L413.348 240.66C413.157 240.376 413.049 240.044 413.037 239.702C413.024 239.36 413.108 239.022 413.278 238.724C414.519 236.563 415.502 234.265 416.208 231.877C416.406 231.18 417.003 230.669 417.726 230.602L426.245 229.706C426.695 229.657 427.111 229.443 427.411 229.105C427.711 228.766 427.873 228.328 427.865 227.877L427.721 220.14C427.71 219.744 427.568 219.362 427.318 219.053C427.068 218.745 426.724 218.527 426.338 218.432C426.257 218.414 426.168 218.393 426.08 218.391L418.306 217.701C417.583 217.64 416.966 217.165 416.743 216.481C416.722 216.421 416.7 216.363 416.691 216.299C416.65 216.112 416.613 215.937 416.552 215.751C416.027 213.57 415.268 211.453 414.289 209.434C413.951 208.763 414.098 207.945 414.644 207.411L419.315 202.752C419.978 202.095 420.031 201.035 419.443 200.308L418.37 198.97L414.614 194.315C414.03 193.579 412.976 193.424 412.188 193.944L406.446 197.789C405.835 198.204 405.037 198.178 404.437 197.75C401.623 195.738 398.499 194.198 395.188 193.189L395.034 191.708L394.387 185.63C394.352 185.267 394.204 184.925 393.964 184.651C393.724 184.376 393.404 184.183 393.048 184.099C392.897 184.061 392.742 184.045 392.586 184.052L384.797 184.193C383.876 184.218 383.124 184.933 383.035 185.838L382.614 190.61C382.542 191.415 381.919 192.091 381.116 192.221C377.802 192.748 374.593 193.797 371.608 195.327C370.903 195.689 370.062 195.564 369.531 195.012L363.947 189.446C363.643 189.146 363.239 188.968 362.812 188.945C362.385 188.923 361.965 189.058 361.631 189.324L355.512 194.226C354.785 194.804 354.628 195.836 355.145 196.589L359.919 203.69C360.335 204.298 360.328 205.093 359.91 205.707C359.018 207.018 358.229 208.424 357.53 209.914C357.157 210.707 356.817 211.516 356.511 212.338C356.393 212.651 356.191 212.925 355.927 213.131C355.662 213.337 355.346 213.466 355.013 213.504L346.847 214.366C346.391 214.413 345.969 214.629 345.664 214.97C345.359 215.311 345.193 215.753 345.198 216.21ZM377.091 237.558C375.306 236.472 373.634 235.023 372.135 233.182C371.811 232.795 371.499 232.325 371.193 231.816C369.905 229.61 368.949 226.573 368.916 224.349C368.688 207.337 388.496 199.964 399.479 212.666C399.657 212.877 399.835 213.088 400.009 213.307C401.646 215.34 403.023 219.166 403.086 221.768C403.118 223.075 403.027 224.383 402.815 225.674C400.705 238.019 387.259 243.74 377.091 237.558Z" fill="url(#paint0_linear_426_290)" stroke="#0199FE" stroke-width="2" mask="url(#path-2-inside-1_426_290)"/>
<mask id="path-3-inside-2_426_290" fill="white">
<path d="M69.0979 222.078L68.7504 228.698L68.7432 228.856C68.7237 229.244 68.8476 229.625 69.0914 229.928C69.3353 230.231 69.6821 230.435 70.0662 230.5L75.5321 231.41C75.6228 231.425 75.7097 231.447 75.7927 231.476C76.3698 231.685 76.7959 232.211 76.8329 232.835C77.1078 236.505 78.1117 240.084 79.7861 243.363C79.8541 243.5 79.9001 243.643 79.9283 243.785C79.9775 244.057 79.9556 244.337 79.8648 244.598C79.774 244.858 79.6173 245.091 79.4098 245.274L75.9072 248.275C75.6865 248.47 75.5237 248.722 75.4363 249.002C75.349 249.283 75.3406 249.582 75.412 249.867C75.4607 250.039 75.5332 250.214 75.6422 250.374L79.4867 255.964C79.7156 256.297 80.0619 256.533 80.4568 256.624C80.8517 256.715 81.2664 256.654 81.6187 256.454L86.9573 253.426C87.2154 253.28 87.51 253.21 87.8064 253.226C88.1028 253.241 88.3885 253.341 88.63 253.513C90.6945 254.95 92.9461 256.1 95.3226 256.93L95.3292 256.934C95.6372 257.039 95.9057 257.236 96.099 257.497C96.2924 257.758 96.4014 258.072 96.4115 258.397L96.6212 264.635L96.6351 264.949C96.6465 265.34 96.8045 265.712 97.0779 265.993C97.3514 266.273 97.7203 266.441 98.1119 266.463L104.882 266.848C105.281 266.869 105.673 266.742 105.984 266.493C106.296 266.243 106.504 265.888 106.569 265.495L107.559 259.417C107.61 259.089 107.764 258.786 107.999 258.552C108.234 258.317 108.538 258.163 108.867 258.112C111.692 257.646 114.426 256.743 116.972 255.436C117.623 255.111 118.411 255.265 118.891 255.824L122.473 259.981C122.732 260.283 123.094 260.48 123.49 260.531C123.886 260.583 124.287 260.486 124.615 260.26L130.216 256.427C130.534 256.207 130.758 255.876 130.843 255.5C130.929 255.124 130.87 254.729 130.678 254.394L127.102 248.101C126.952 247.839 126.879 247.542 126.89 247.241C126.9 246.941 126.995 246.649 127.162 246.399C128.384 244.587 129.388 242.638 130.154 240.593C130.258 240.301 130.448 240.048 130.699 239.867C130.95 239.685 131.251 239.585 131.561 239.578L139.061 239.366C139.458 239.354 139.835 239.194 140.119 238.917C140.403 238.64 140.572 238.268 140.592 237.873L140.954 231.08C140.969 230.732 140.87 230.388 140.672 230.101C140.473 229.814 140.186 229.6 139.854 229.49C139.784 229.469 139.708 229.444 139.631 229.437L132.882 228.308C132.575 228.26 132.29 228.123 132.06 227.914C131.831 227.705 131.669 227.434 131.594 227.133C131.579 227.079 131.563 227.027 131.559 226.97C131.535 226.803 131.514 226.647 131.473 226.481C131.151 224.533 130.621 222.626 129.893 220.79C129.64 220.18 129.82 219.472 130.332 219.041L134.707 215.272C135.327 214.741 135.441 213.815 134.972 213.138L134.12 211.893L131.132 207.559C130.907 207.23 130.567 206.997 130.178 206.907C129.79 206.817 129.382 206.875 129.034 207.071L123.776 210.054C123.216 210.378 122.52 210.3 122.023 209.885C120.692 208.77 119.261 207.781 117.748 206.93C116.615 206.293 115.44 205.736 114.229 205.264L114.187 203.954L114.006 198.583C113.998 198.263 113.89 197.954 113.698 197.697C113.506 197.441 113.238 197.25 112.932 197.152C112.803 197.108 112.668 197.084 112.532 197.079L105.717 196.679C104.911 196.638 104.209 197.214 104.074 198.001L103.405 202.156C103.291 202.857 102.704 203.408 101.995 203.467C99.0669 203.706 96.1961 204.41 93.4905 205.55C92.8525 205.82 92.1254 205.654 91.696 205.134L87.1681 199.879C86.923 199.596 86.582 199.413 86.2102 199.364C85.8383 199.316 85.4615 199.405 85.1518 199.616L79.4961 203.501C79.1734 203.72 78.9456 204.053 78.8585 204.432C78.7714 204.812 78.8313 205.21 79.0263 205.547L82.7492 212.094C82.9076 212.368 82.9795 212.683 82.9556 212.998C82.9317 213.314 82.8131 213.615 82.6153 213.862C81.7408 214.974 80.9565 216.153 80.2697 217.389C79.8935 218.059 79.5455 218.745 79.2267 219.445C79.1043 219.711 78.9104 219.938 78.6664 220.101C78.4223 220.263 78.1378 220.355 77.8444 220.367L70.6544 220.572C70.2529 220.583 69.8701 220.744 69.5819 221.022C69.2936 221.301 69.1209 221.678 69.0979 222.078ZM95.6169 242.94C94.1268 241.867 92.7562 240.484 91.5627 238.769C91.3048 238.408 91.0613 237.975 90.8267 237.509C89.8401 235.488 89.1966 232.761 89.3073 230.81C90.1815 215.882 107.954 210.752 116.75 222.627C116.892 222.824 117.034 223.021 117.173 223.225C118.473 225.117 119.436 228.563 119.327 230.848C119.272 231.996 119.11 233.136 118.844 234.254C116.221 244.934 104.112 249.043 95.6169 242.94Z"/>
</mask>
<path d="M69.0979 222.078L68.7504 228.698L68.7432 228.856C68.7237 229.244 68.8476 229.625 69.0914 229.928C69.3353 230.231 69.6821 230.435 70.0662 230.5L75.5321 231.41C75.6228 231.425 75.7097 231.447 75.7927 231.476C76.3698 231.685 76.7959 232.211 76.8329 232.835C77.1078 236.505 78.1117 240.084 79.7861 243.363C79.8541 243.5 79.9001 243.643 79.9283 243.785C79.9775 244.057 79.9556 244.337 79.8648 244.598C79.774 244.858 79.6173 245.091 79.4098 245.274L75.9072 248.275C75.6865 248.47 75.5237 248.722 75.4363 249.002C75.349 249.283 75.3406 249.582 75.412 249.867C75.4607 250.039 75.5332 250.214 75.6422 250.374L79.4867 255.964C79.7156 256.297 80.0619 256.533 80.4568 256.624C80.8517 256.715 81.2664 256.654 81.6187 256.454L86.9573 253.426C87.2154 253.28 87.51 253.21 87.8064 253.226C88.1028 253.241 88.3885 253.341 88.63 253.513C90.6945 254.95 92.9461 256.1 95.3226 256.93L95.3292 256.934C95.6372 257.039 95.9057 257.236 96.099 257.497C96.2924 257.758 96.4014 258.072 96.4115 258.397L96.6212 264.635L96.6351 264.949C96.6465 265.34 96.8045 265.712 97.0779 265.993C97.3514 266.273 97.7203 266.441 98.1119 266.463L104.882 266.848C105.281 266.869 105.673 266.742 105.984 266.493C106.296 266.243 106.504 265.888 106.569 265.495L107.559 259.417C107.61 259.089 107.764 258.786 107.999 258.552C108.234 258.317 108.538 258.163 108.867 258.112C111.692 257.646 114.426 256.743 116.972 255.436C117.623 255.111 118.411 255.265 118.891 255.824L122.473 259.981C122.732 260.283 123.094 260.48 123.49 260.531C123.886 260.583 124.287 260.486 124.615 260.26L130.216 256.427C130.534 256.207 130.758 255.876 130.843 255.5C130.929 255.124 130.87 254.729 130.678 254.394L127.102 248.101C126.952 247.839 126.879 247.542 126.89 247.241C126.9 246.941 126.995 246.649 127.162 246.399C128.384 244.587 129.388 242.638 130.154 240.593C130.258 240.301 130.448 240.048 130.699 239.867C130.95 239.685 131.251 239.585 131.561 239.578L139.061 239.366C139.458 239.354 139.835 239.194 140.119 238.917C140.403 238.64 140.572 238.268 140.592 237.873L140.954 231.08C140.969 230.732 140.87 230.388 140.672 230.101C140.473 229.814 140.186 229.6 139.854 229.49C139.784 229.469 139.708 229.444 139.631 229.437L132.882 228.308C132.575 228.26 132.29 228.123 132.06 227.914C131.831 227.705 131.669 227.434 131.594 227.133C131.579 227.079 131.563 227.027 131.559 226.97C131.535 226.803 131.514 226.647 131.473 226.481C131.151 224.533 130.621 222.626 129.893 220.79C129.64 220.18 129.82 219.472 130.332 219.041L134.707 215.272C135.327 214.741 135.441 213.815 134.972 213.138L134.12 211.893L131.132 207.559C130.907 207.23 130.567 206.997 130.178 206.907C129.79 206.817 129.382 206.875 129.034 207.071L123.776 210.054C123.216 210.378 122.52 210.3 122.023 209.885C120.692 208.77 119.261 207.781 117.748 206.93C116.615 206.293 115.44 205.736 114.229 205.264L114.187 203.954L114.006 198.583C113.998 198.263 113.89 197.954 113.698 197.697C113.506 197.441 113.238 197.25 112.932 197.152C112.803 197.108 112.668 197.084 112.532 197.079L105.717 196.679C104.911 196.638 104.209 197.214 104.074 198.001L103.405 202.156C103.291 202.857 102.704 203.408 101.995 203.467C99.0669 203.706 96.1961 204.41 93.4905 205.55C92.8525 205.82 92.1254 205.654 91.696 205.134L87.1681 199.879C86.923 199.596 86.582 199.413 86.2102 199.364C85.8383 199.316 85.4615 199.405 85.1518 199.616L79.4961 203.501C79.1734 203.72 78.9456 204.053 78.8585 204.432C78.7714 204.812 78.8313 205.21 79.0263 205.547L82.7492 212.094C82.9076 212.368 82.9795 212.683 82.9556 212.998C82.9317 213.314 82.8131 213.615 82.6153 213.862C81.7408 214.974 80.9565 216.153 80.2697 217.389C79.8935 218.059 79.5455 218.745 79.2267 219.445C79.1043 219.711 78.9104 219.938 78.6664 220.101C78.4223 220.263 78.1378 220.355 77.8444 220.367L70.6544 220.572C70.2529 220.583 69.8701 220.744 69.5819 221.022C69.2936 221.301 69.1209 221.678 69.0979 222.078ZM95.6169 242.94C94.1268 241.867 92.7562 240.484 91.5627 238.769C91.3048 238.408 91.0613 237.975 90.8267 237.509C89.8401 235.488 89.1966 232.761 89.3073 230.81C90.1815 215.882 107.954 210.752 116.75 222.627C116.892 222.824 117.034 223.021 117.173 223.225C118.473 225.117 119.436 228.563 119.327 230.848C119.272 231.996 119.11 233.136 118.844 234.254C116.221 244.934 104.112 249.043 95.6169 242.94Z" fill="url(#paint1_linear_426_290)" stroke="#0199FE" stroke-width="2" mask="url(#path-3-inside-2_426_290)"/>
<path d="M96.0322 156.173C93.2864 156.173 91.0605 158.253 91.0605 160.82C91.0605 163.386 93.2864 165.466 96.0322 165.466C98.778 165.466 101.004 163.386 101.004 160.82C101.004 158.253 98.778 156.173 96.0322 156.173Z" fill="#E1E4E5"/>
<path d="M412.04 144.401C409.466 144.401 407.38 146.62 407.38 149.358C407.38 152.095 409.466 154.314 412.04 154.314C414.615 154.314 416.701 152.095 416.701 149.358C416.701 146.62 414.615 144.401 412.04 144.401Z" fill="#0199FE"/>
<path d="M175.578 228.664C172.832 228.664 170.606 230.883 170.606 233.62C170.606 236.358 172.832 238.577 175.578 238.577C178.324 238.577 180.55 236.358 180.55 233.62C180.55 230.883 178.324 228.664 175.578 228.664Z" fill="#E1E4E5"/>
<path d="M220.816 90.1049C217.262 92.1505 212.718 90.9365 210.666 87.3934C208.614 83.8503 209.832 79.3198 213.386 77.2742C216.939 75.2286 221.484 76.4426 223.535 79.9856C225.587 83.5287 224.37 88.0593 220.816 90.1049Z" fill="#E1E4E5"/>
<path d="M314.473 234.86C318.077 234.86 320.998 232.086 320.998 228.664C320.998 225.242 318.077 222.469 314.473 222.469C310.869 222.469 307.947 225.242 307.947 228.664C307.947 232.086 310.869 234.86 314.473 234.86Z" fill="#0199FE"/>
</g>
<defs>
<linearGradient id="paint0_linear_426_290" x1="339.388" y1="149.167" x2="454.191" y2="332.874" gradientUnits="userSpaceOnUse">
<stop stop-color="white"/>
<stop offset="1" stop-color="#EEEEEE"/>
</linearGradient>
<linearGradient id="paint1_linear_426_290" x1="68.2507" y1="162.915" x2="157.032" y2="331.655" gradientUnits="userSpaceOnUse">
<stop stop-color="white"/>
<stop offset="1" stop-color="#EEEEEE"/>
</linearGradient>
<clipPath id="clip0_426_290">
<rect width="498" height="331" fill="white"/>
</clipPath>
</defs>
</svg>
