<svg width="440" height="293" viewBox="0 0 440 293" fill="none" xmlns="http://www.w3.org/2000/svg">
<g clip-path="url(#clip0_425_126)">
<path d="M287.555 189.194H308.384C314.132 189.194 318.798 193.854 318.798 199.596V220.402C318.798 226.144 314.132 230.804 308.384 230.804H287.555C281.806 230.804 277.14 226.144 277.14 220.402V199.596C277.14 193.854 281.806 189.194 287.555 189.194ZM141.751 43.5564H162.58C168.329 43.5564 172.995 48.2166 172.995 53.9589V74.7643C172.995 80.5066 168.329 85.1668 162.58 85.1668H141.751C136.002 85.1668 131.337 80.5066 131.337 74.7643V53.9589C131.337 48.2166 136.002 43.5564 141.751 43.5564V43.5564Z" stroke="#E1E4E5" stroke-width="8" stroke-linecap="round" stroke-linejoin="round"/>
<path d="M214.653 116.375H235.482C241.231 116.375 245.896 121.035 245.896 126.778V147.583C245.896 153.325 241.231 157.986 235.482 157.986H214.653C208.904 157.986 204.238 153.325 204.238 147.583V126.778C204.238 121.035 208.904 116.375 214.653 116.375Z" stroke="#E1E4E5" stroke-width="12" stroke-linecap="round" stroke-linejoin="round"/>
<path d="M214.653 64.3614H297.969C309.477 64.3614 318.798 73.6719 318.798 85.1668V116.375C318.798 127.87 309.477 137.18 297.969 137.18H277.14M235.482 209.999H152.166C140.658 209.999 131.337 200.689 131.337 189.194V157.986C131.337 146.491 140.658 137.181 152.166 137.181H172.995" stroke="#E1E4E5" stroke-width="8" stroke-linecap="round" stroke-linejoin="round"/>
<path d="M228.499 175.666C249.757 175.666 266.99 158.452 266.99 137.218C266.99 115.984 249.757 98.7703 228.499 98.7703C207.24 98.7703 190.007 115.984 190.007 137.218C190.007 158.452 207.24 175.666 228.499 175.666Z" fill="#0199FE" stroke="#0199FE" stroke-width="11.812" stroke-linecap="round" stroke-linejoin="round"/>
<path d="M232.572 122.979L224.426 151.459M215.256 141.286L207.113 133.152L215.256 125.014M241.734 149.424L249.881 141.286L241.734 133.152" stroke="white" stroke-width="9.45" stroke-linecap="round" stroke-linejoin="round"/>
<path d="M414.408 64.3145H340.528C339.536 64.3145 338.731 65.118 338.731 66.1091C338.731 67.1002 339.536 67.9037 340.528 67.9037H414.408C415.4 67.9037 416.204 67.1002 416.204 66.1091C416.204 65.118 415.4 64.3145 414.408 64.3145Z" fill="#0199FE"/>
<path d="M403.098 146.218H329.219C328.226 146.218 327.422 147.022 327.422 148.013C327.422 149.004 328.226 149.807 329.219 149.807H403.098C404.09 149.807 404.895 149.004 404.895 148.013C404.895 147.022 404.09 146.218 403.098 146.218Z" fill="#0199FE"/>
<path d="M123.178 101.03H49.2986C48.3063 101.03 47.502 101.833 47.502 102.824C47.502 103.816 48.3063 104.619 49.2986 104.619H123.178C124.17 104.619 124.975 103.816 124.975 102.824C124.975 101.833 124.17 101.03 123.178 101.03Z" fill="#E1E4E5"/>
<path d="M119.219 217.389H45.3396C44.3474 217.389 43.543 218.193 43.543 219.184C43.543 220.175 44.3474 220.979 45.3396 220.979H119.219C120.211 220.979 121.016 220.175 121.016 219.184C121.016 218.193 120.211 217.389 119.219 217.389Z" fill="#E1E4E5"/>
<path d="M414.408 82.9547H340.528C339.536 82.9547 338.731 83.7581 338.731 84.7493C338.731 85.7404 339.536 86.5439 340.528 86.5439H414.408C415.4 86.5439 416.204 85.7404 416.204 84.7493C416.204 83.7581 415.4 82.9547 414.408 82.9547Z" fill="#0199FE"/>
<path d="M403.098 164.858H329.219C328.226 164.858 327.422 165.661 327.422 166.653C327.422 167.644 328.226 168.447 329.219 168.447H403.098C404.09 168.447 404.895 167.644 404.895 166.653C404.895 165.661 404.09 164.858 403.098 164.858Z" fill="#0199FE"/>
<path d="M123.178 119.67H49.2986C48.3063 119.67 47.502 120.473 47.502 121.465C47.502 122.456 48.3063 123.259 49.2986 123.259H123.178C124.17 123.259 124.975 122.456 124.975 121.465C124.975 120.473 124.17 119.67 123.178 119.67Z" fill="#E1E4E5"/>
<path d="M119.219 236.03H45.3396C44.3474 236.03 43.543 236.833 43.543 237.824C43.543 238.815 44.3474 239.619 45.3396 239.619H119.219C120.211 239.619 121.016 238.815 121.016 237.824C121.016 236.833 120.211 236.03 119.219 236.03Z" fill="#E1E4E5"/>
<path d="M373.982 113.26C381.677 111.439 389.815 117.957 389.815 117.957C389.815 117.957 385.472 127.424 377.775 129.239C370.08 131.06 361.944 124.547 361.944 124.547C361.944 124.547 366.288 115.081 373.982 113.26Z" fill="url(#paint0_linear_425_126)"/>
<path d="M101.623 164.667C105.904 164.667 109.374 161.201 109.374 156.925C109.374 152.649 105.904 149.183 101.623 149.183C97.3422 149.183 93.8721 152.649 93.8721 156.925C93.8721 161.201 97.3422 164.667 101.623 164.667Z" fill="#0199FE"/>
<path d="M410.714 109.644C413.928 109.644 416.533 112.246 416.533 115.457C416.533 118.667 413.928 121.269 410.714 121.269C407.5 121.269 404.895 118.667 404.895 115.457C404.895 112.246 407.5 109.644 410.714 109.644Z" fill="#0199FE"/>
<path d="M285.739 85.3558C288.953 85.3558 291.558 87.9582 291.558 91.1684C291.558 94.3786 288.953 96.981 285.739 96.981C282.525 96.981 279.92 94.3786 279.92 91.1684C279.92 87.9582 282.525 85.3558 285.739 85.3558Z" fill="#0199FE"/>
<path d="M159.836 235.606C165.971 235.606 170.946 240.574 170.946 246.703C170.946 252.832 165.971 257.8 159.836 257.8C153.7 257.8 148.726 252.832 148.726 246.703C148.726 240.574 153.7 235.606 159.836 235.606Z" fill="#0199FE"/>
<path d="M297.995 203.974C301.42 203.974 304.196 206.747 304.196 210.167C304.196 213.588 301.42 216.361 297.995 216.361C294.571 216.361 291.795 213.588 291.795 210.167C291.795 206.747 294.571 203.974 297.995 203.974Z" fill="#E1E4E5"/>
<path d="M215.089 236.171C218.011 236.171 220.379 238.537 220.379 241.455C220.379 244.373 218.011 246.739 215.089 246.739C212.167 246.739 209.799 244.373 209.799 241.455C209.799 238.537 212.167 236.171 215.089 236.171Z" fill="#E1E4E5"/>
<path d="M358.731 200.338C357.992 197.583 359.629 194.752 362.387 194.013C365.145 193.275 367.98 194.91 368.719 197.665C369.458 200.42 367.821 203.252 365.063 203.99C362.305 204.728 359.47 203.093 358.731 200.338Z" fill="#0199FE"/>
<path d="M356.847 45.8804C360.646 45.8804 363.725 48.9561 363.725 52.7503C363.725 56.5444 360.646 59.6201 356.847 59.6201C353.049 59.6201 349.97 56.5444 349.97 52.7503C349.97 48.9561 353.049 45.8804 356.847 45.8804Z" fill="#0199FE"/>
<path d="M29.0412 139.006C31.963 139.006 34.3315 140.898 34.3315 143.233C34.3315 145.568 31.963 147.461 29.0412 147.461C26.1195 147.461 23.751 145.568 23.751 143.233C23.751 140.898 26.1195 139.006 29.0412 139.006Z" fill="#E1E4E5"/>
<path d="M95.7332 46.9107C94.6469 42.8611 97.0529 38.6986 101.107 37.6135C105.161 36.5284 109.329 38.9316 110.415 42.9812C111.501 47.0308 109.095 51.1933 105.041 52.2784C100.987 53.3635 96.8196 50.9603 95.7332 46.9107Z" fill="#E1E4E5"/>
<path d="M63.3156 181.891H63.1773C62.3574 170.293 53.7217 170.114 53.7217 170.114C53.7217 170.114 63.2447 169.929 63.2447 156.526C63.2447 169.929 72.7673 170.114 72.7673 170.114C72.7673 170.114 64.135 170.293 63.3156 181.891V181.891ZM70.2994 69.0835H70.1992C69.6042 60.442 63.3352 60.3092 63.3352 60.3092C63.3352 60.3092 70.2481 60.1705 70.2481 50.186C70.2481 60.1705 77.1605 60.3092 77.1605 60.3092C77.1605 60.3092 70.8944 60.442 70.2994 69.0835V69.0835Z" fill="#0199FE"/>
</g>
<defs>
<linearGradient id="paint0_linear_425_126" x1="402.958" y1="108.732" x2="335.627" y2="140.578" gradientUnits="userSpaceOnUse">
<stop stop-color="#0199FE"/>
<stop offset="1" stop-color="#EEEEEE"/>
</linearGradient>
<clipPath id="clip0_425_126">
<rect width="440" height="293" fill="white"/>
</clipPath>
</defs>
</svg>
