<svg width="30" height="30" viewBox="0 0 30 30" fill="none" xmlns="http://www.w3.org/2000/svg">
<circle cx="15" cy="15" r="14.75" stroke="white" stroke-opacity="0.73" stroke-width="0.5"/>
<path d="M11.617 20.2502H9.07734V12.0717H11.617V20.2502ZM10.3458 10.9561C9.53371 10.9561 8.875 10.2834 8.875 9.47131C8.875 9.08122 9.02996 8.70711 9.30579 8.43128C9.58163 8.15545 9.95573 8.00049 10.3458 8.00049C10.7359 8.00049 11.11 8.15545 11.3858 8.43128C11.6617 8.70711 11.8166 9.08122 11.8166 9.47131C11.8166 10.2834 11.1577 10.9561 10.3458 10.9561ZM21.1223 20.2502H18.588V16.269C18.588 15.3201 18.5689 14.1033 17.2676 14.1033C15.9472 14.1033 15.7448 15.1342 15.7448 16.2006V20.2502H13.2079V12.0717H15.6437V13.1873H15.6792C16.0183 12.5447 16.8465 11.8666 18.0822 11.8666C20.6525 11.8666 21.125 13.5592 21.125 15.7576V20.2502H21.1223Z" fill="white"/>
</svg>
