<svg width="30" height="30" viewBox="0 0 30 30" fill="none" xmlns="http://www.w3.org/2000/svg">
<circle cx="15" cy="15" r="14.75" stroke="white" stroke-opacity="0.73" stroke-width="0.5"/>
<path d="M20.5609 12.1487C20.5698 12.273 20.5698 12.3974 20.5698 12.5218C20.5698 16.3149 17.6827 20.6855 12.4061 20.6855C10.7804 20.6855 9.27031 20.2147 8 19.3974C8.23097 19.4241 8.45303 19.4329 8.69289 19.4329C10.0342 19.4329 11.269 18.9799 12.2551 18.2071C10.9936 18.1804 9.93654 17.3543 9.57232 16.2172C9.75 16.2438 9.92765 16.2616 10.1142 16.2616C10.3718 16.2616 10.6295 16.2261 10.8693 16.1639C9.55457 15.8974 8.5685 14.7426 8.5685 13.3479V13.3124C8.95047 13.5256 9.39467 13.6589 9.86545 13.6766C9.0926 13.1614 8.58628 12.2819 8.58628 11.287C8.58628 10.754 8.72838 10.2654 8.97713 9.83904C10.3896 11.5802 12.5127 12.7172 14.8934 12.8416C14.849 12.6284 14.8223 12.4063 14.8223 12.1842C14.8223 10.603 16.1015 9.31494 17.6916 9.31494C18.5177 9.31494 19.2639 9.66139 19.788 10.221C20.4365 10.0967 21.0583 9.85681 21.6091 9.52814C21.3959 10.1944 20.9428 10.754 20.3477 11.1093C20.9251 11.0472 21.4847 10.8873 21.9999 10.6652C21.6091 11.2337 21.1205 11.74 20.5609 12.1487Z" fill="white"/>
</svg>
